<svg xmlns="http://www.w3.org/2000/svg" viewBox="0 0 752.29 304.47"><defs><style>.cls-1{fill:#fff;}.cls-2{fill:#009ee2;}.cls-3{fill:#003e66;}</style></defs><title>logo-alcaldia_1</title><g id="Capa_2" data-name="Capa 2"><g id="Capa_1-2" data-name="Capa 1"><rect class="cls-1" width="752.29" height="304.47"/><rect class="cls-2" x="331.73" y="34.08" width="4.73" height="236.29"/><path class="cls-2" d="M398.14,142.79c2.92,0,4.69-1,4.69-3.26v-.09c0-2-1.51-3.27-4.91-3.27h-7.65v6.62Zm-1.76-12.12c2.92,0,4.77-.95,4.77-3.19v-.08c0-2-1.55-3.1-4.35-3.1h-6.53v6.37Zm-12.56-8.86a3.29,3.29,0,0,1,3.31-3.32h10.66c3.44,0,6.15,1,7.88,2.67a6.93,6.93,0,0,1,2.06,5.12v.09a7,7,0,0,1-4,6.49c3.48,1.33,5.64,3.35,5.64,7.4v.08c0,5.51-4.48,8.26-11.27,8.26h-11a3.28,3.28,0,0,1-3.31-3.31Z"/><path class="cls-2" d="M445.26,128.93v-.11c0-6.78-5-12.44-12-12.44s-11.87,5.54-11.87,12.32v.12c0,6.78,5,12.43,12,12.43s11.87-5.54,11.87-12.32m-32.95,0v-.11c0-11.25,8.88-20.47,21.08-20.47s21,9.1,21,20.35v.12c0,11.25-8.87,20.46-21.08,20.46s-21-9.1-21-20.35"/><path class="cls-2" d="M458.59,123.8v-.15c0-14.18,11.05-25.79,26.15-25.79,7.56,0,12.54,1.71,17,4.84a5.52,5.52,0,0,1,2.27,4.43,5.41,5.41,0,0,1-5.41,5.41,5.33,5.33,0,0,1-3.35-1.14A17.45,17.45,0,0,0,484.38,108c-8,0-14.32,7-14.32,15.53v.14c0,9.13,6.27,15.83,15.11,15.83a17.54,17.54,0,0,0,10.33-3v-7.13h-7.41a4.72,4.72,0,0,1-4.77-4.71,4.78,4.78,0,0,1,4.77-4.77h12.54a5.44,5.44,0,0,1,5.49,5.49v12.11a7.42,7.42,0,0,1-3.85,7,33.2,33.2,0,0,1-17.46,5c-15.53,0-26.22-10.91-26.22-25.66"/><path class="cls-2" d="M560.11,118.24v-.17c0-10.47-7.69-19.2-18.5-19.2s-18.32,8.55-18.32,19v.18c0,10.47,7.68,19.19,18.5,19.19s18.32-8.55,18.32-19m-50.86,0v-.17c0-17.36,13.69-31.58,32.54-31.58s32.36,14,32.36,31.4v.18c0,17.36-13.7,31.57-32.54,31.57s-32.36-14-32.36-31.4"/><path class="cls-2" d="M590.17,90.32H574.72a7.42,7.42,0,1,1,0-14.83h47a7.42,7.42,0,1,1,0,14.83H606.25v50.86a8,8,0,1,1-16.08,0Z"/><path class="cls-2" d="M656.59,52.15a6.88,6.88,0,0,1,1.23-3.32l6.76-10.57a8,8,0,0,1,7-4.17c4.55,0,10.45,2.82,10.45,5.65,0,1.72-1,3.07-2.46,4.42L672,51.29c-3.56,3.31-6.51,4.05-10.69,4.05-2.7,0-4.67-1.23-4.67-3.19m17,60.45L661.63,84.22,649.71,112.6Zm-53.2,23.83,30-67.7c2.08-4.66,5.9-7.49,11.06-7.49h1.1c5.16,0,8.85,2.83,10.94,7.49l30,67.7a9.22,9.22,0,0,1,1,3.81,9,9,0,0,1-9,9.1c-4.42,0-7.37-2.59-9.09-6.52l-5.78-13.51H642.71l-6,14.13a9.29,9.29,0,0,1-8.72,5.9,8.71,8.71,0,0,1-8.73-8.85,10,10,0,0,1,1.11-4.06"/><path class="cls-3" d="M383.78,167.73a6.94,6.94,0,0,1,7-7h1.54a7.19,7.19,0,0,1,6.37,3.64l16.92,27.56,17-27.65a6.86,6.86,0,0,1,6.27-3.55h1.55a7,7,0,0,1,7,7V218.3a7,7,0,1,1-13.93,0V186.56l-12.27,18.92c-1.46,2.18-3.28,3.55-5.82,3.55s-4.37-1.37-5.83-3.55l-12.09-18.65v31.66a6.84,6.84,0,0,1-6.91,6.82,6.76,6.76,0,0,1-6.82-6.82Z"/><path class="cls-3" d="M462.72,217.76V168.1a7,7,0,0,1,7-7H505a6.29,6.29,0,0,1,6.29,6.27,6.22,6.22,0,0,1-6.29,6.19H476.64v12.91h24.28a6.28,6.28,0,0,1,6.28,6.27,6.21,6.21,0,0,1-6.28,6.19H476.64V212.3h28.83a6.29,6.29,0,0,1,6.28,6.28,6.21,6.21,0,0,1-6.28,6.18H469.73a7,7,0,0,1-7-7"/><path class="cls-3" d="M521.3,220.12a7,7,0,0,1-2.64-5.36A6.64,6.64,0,0,1,525.3,208a6.32,6.32,0,0,1,4.18,1.45c2.82,2.09,5.28,3.18,8.46,3.18,5.46,0,8.74-3.18,8.74-10.54V167.55a7,7,0,0,1,14,0v35.2c0,7.55-2.18,13.19-6,17s-9.64,5.91-16.55,5.91a27,27,0,0,1-16.83-5.55"/><path class="cls-3" d="M625.17,193.11v-.19c0-10.91-8-20-19.28-20s-19.1,8.92-19.1,19.83v.18c0,10.92,8,20,19.28,20s19.1-8.92,19.1-19.83m-53,0v-.19c0-18.1,14.29-32.92,33.93-32.92s33.75,14.64,33.75,32.74v.18c0,18.11-14.28,32.93-33.93,32.93s-33.75-14.64-33.75-32.74"/><path class="cls-3" d="M680.47,192c6.83,0,10.73-3.64,10.73-9v-.18c0-6-4.18-9.1-11-9.1H666.28V192ZM652.28,168.1a7,7,0,0,1,7-7h22.1c8.1,0,14.37,2.28,18.56,6.46,3.54,3.55,5.45,8.55,5.45,14.55v.19c0,10-5,16.18-12.73,19.37l9.73,11.82c1.37,1.73,2.28,3.19,2.28,5.37a6.52,6.52,0,0,1-6.65,6.46,8.39,8.39,0,0,1-6.91-3.64l-13.64-17.28H666.28V218.3a7,7,0,1,1-14,0Z"/><path class="cls-3" d="M396.84,253.38c3.65,0,5.78-2.18,5.78-5v-.09c0-3.27-2.27-5-5.92-5h-5.64v10.14ZM383.77,240.3a3.62,3.62,0,0,1,3.65-3.64h9.9c7.9,0,12.69,4.69,12.69,11.46v.1c0,7.67-6,11.64-13.4,11.64h-5.55v6.59a3.65,3.65,0,1,1-7.29,0Z"/><path class="cls-3" d="M431.7,255.93,427.1,245l-4.59,10.94Zm-20.51,9.19L422.75,239a4.5,4.5,0,0,1,4.26-2.88h.43a4.44,4.44,0,0,1,4.21,2.88l11.56,26.1a3.69,3.69,0,0,1,.38,1.47,3.47,3.47,0,0,1-3.46,3.51,3.7,3.7,0,0,1-3.5-2.52l-2.23-5.21H419.81l-2.32,5.45a3.59,3.59,0,0,1-3.36,2.28,3.36,3.36,0,0,1-3.37-3.41,3.81,3.81,0,0,1,.43-1.57"/><path class="cls-3" d="M464,252.76c3.55,0,5.59-1.89,5.59-4.69V248c0-3.13-2.18-4.74-5.73-4.74h-7.25v9.52ZM449.32,240.3a3.62,3.62,0,0,1,3.64-3.64h11.51c4.22,0,7.49,1.18,9.67,3.36A10.44,10.44,0,0,1,477,247.6v.09c0,5.21-2.61,8.43-6.63,10.09l5.07,6.16a4.3,4.3,0,0,1,1.18,2.79,3.4,3.4,0,0,1-3.46,3.37,4.36,4.36,0,0,1-3.6-1.9l-7.1-9h-5.83v7.25a3.65,3.65,0,1,1-7.29,0Z"/><path class="cls-3" d="M502.22,255.93,497.63,245,493,255.93Zm-20.51,9.19L493.27,239a4.5,4.5,0,0,1,4.26-2.88H498a4.45,4.45,0,0,1,4.21,2.88l11.56,26.1a3.69,3.69,0,0,1,.38,1.47,3.47,3.47,0,0,1-3.46,3.51,3.73,3.73,0,0,1-3.51-2.52l-2.22-5.21H490.33L488,267.82a3.6,3.6,0,0,1-3.36,2.28,3.35,3.35,0,0,1-3.36-3.41,4,4,0,0,1,.42-1.57"/><path class="cls-3" d="M541.76,243.38h-7a3.36,3.36,0,1,1,0-6.72h21.31a3.36,3.36,0,0,1,0,6.72h-7v23.07a3.65,3.65,0,0,1-7.3,0Z"/><path class="cls-3" d="M589.46,253.33v-.1c0-5.68-4.17-10.42-10-10.42s-9.95,4.64-9.95,10.33v.09c0,5.68,4.17,10.43,10,10.43s10-4.65,10-10.33m-27.61,0v-.1c0-9.42,7.43-17.14,17.66-17.14s17.57,7.62,17.57,17v.09c0,9.43-7.43,17.15-17.66,17.15s-17.57-7.62-17.57-17"/><path class="cls-3" d="M616.5,263.23c6,0,10-4,10-9.9v-.1c0-5.87-4-10-10-10h-5.64v20ZM603.57,240.3a3.62,3.62,0,0,1,3.65-3.64h9.28c10.42,0,17.62,7.15,17.62,16.48v.09c0,9.33-7.2,16.58-17.62,16.58h-9.28a3.62,3.62,0,0,1-3.65-3.65Z"/><path class="cls-3" d="M666.75,253.33v-.1c0-5.68-4.17-10.42-10-10.42s-9.94,4.64-9.94,10.33v.09c0,5.68,4.16,10.43,10,10.43s10-4.65,10-10.33m-27.61,0v-.1c0-9.42,7.43-17.14,17.66-17.14s17.57,7.62,17.57,17v.09c0,9.43-7.43,17.15-17.66,17.15s-17.57-7.62-17.57-17"/><path class="cls-3" d="M680,266.31a3.44,3.44,0,0,1-1.37-2.75,3.36,3.36,0,0,1,3.41-3.37,3.49,3.49,0,0,1,2.08.67,14,14,0,0,0,8.48,3c3,0,4.78-1.18,4.78-3.12v-.1c0-1.85-1.13-2.79-6.67-4.21-6.68-1.71-11-3.55-11-10.14v-.09c0-6,4.83-10,11.61-10a19.24,19.24,0,0,1,10.51,2.94,3.37,3.37,0,0,1-1.8,6.25,3.53,3.53,0,0,1-1.85-.52,13.8,13.8,0,0,0-7-2.23c-2.79,0-4.26,1.28-4.26,2.9v.09c0,2.18,1.42,2.89,7.15,4.36,6.72,1.75,10.51,4.16,10.51,9.94v.1c0,6.58-5,10.27-12.17,10.27a21.45,21.45,0,0,1-12.46-4"/><path class="cls-3" d="M67.14,237.5H62.71L61,232.91H52.88l-1.67,4.59H46.9l7.84-20.16h4.33Zm-7.5-8-2.78-7.44-2.72,7.44Z"/><polygon class="cls-3" points="68.23 237.5 68.23 217.51 72.3 217.51 72.3 234.09 82.41 234.09 82.41 237.5 68.23 237.5"/><path class="cls-3" d="M96,230.05l3.95,1.26a9,9,0,0,1-3,4.93,9.53,9.53,0,0,1-12-1.14,10.47,10.47,0,0,1-2.59-7.5c0-3.35.86-5.95,2.6-7.81A9,9,0,0,1,91.85,217a8.46,8.46,0,0,1,6,2.19,8.2,8.2,0,0,1,2.07,3.72l-4,1a4.15,4.15,0,0,0-1.48-2.47,4.29,4.29,0,0,0-2.76-.91A4.61,4.61,0,0,0,88,222.1q-1.41,1.6-1.41,5.2c0,2.55.47,4.36,1.39,5.44a4.45,4.45,0,0,0,3.58,1.62,4.07,4.07,0,0,0,2.79-1A6,6,0,0,0,96,230.05"/><path class="cls-3" d="M120.24,237.5h-4.43l-1.76-4.59H106l-1.68,4.59H100l7.85-20.16h4.33Zm-7.5-8L110,222.06l-2.73,7.44Z"/><polygon class="cls-3" points="121.71 237.5 121.71 217.51 125.78 217.51 125.78 234.09 135.9 234.09 135.9 237.5 121.71 237.5"/><path class="cls-3" d="M137.54,217.34H145a15,15,0,0,1,3.85.38,6.83,6.83,0,0,1,3,1.86,8.66,8.66,0,0,1,1.94,3.26,15,15,0,0,1,.65,4.77,13.43,13.43,0,0,1-.61,4.3,8.78,8.78,0,0,1-2.16,3.55,6.94,6.94,0,0,1-2.86,1.61,12.18,12.18,0,0,1-3.61.43h-7.66Zm4.08,3.42v13.33h3a10.82,10.82,0,0,0,2.46-.2,3.73,3.73,0,0,0,1.65-.83,4.4,4.4,0,0,0,1.07-1.95,13.68,13.68,0,0,0,.41-3.68,12.48,12.48,0,0,0-.41-3.58,4.79,4.79,0,0,0-1.15-2,4.28,4.28,0,0,0-1.89-.95,19.93,19.93,0,0,0-3.35-.18Z"/><path class="cls-3" d="M157.3,215.49l1.88-4.11h4.33l-3.76,4.11Zm-1,1.85h4.07V237.5h-4.07Z"/><path class="cls-3" d="M182.49,237.5h-4.43l-1.76-4.59h-8.07l-1.66,4.59h-4.33l7.86-20.16h4.33Zm-7.49-8-2.79-7.44-2.72,7.44Z"/><polygon class="cls-3" points="191.99 237.5 191.99 217.34 198.09 217.34 201.73 231.1 205.36 217.34 211.46 217.34 211.46 237.5 207.68 237.5 207.67 221.63 203.67 237.5 199.75 237.5 195.78 221.63 195.76 237.5 191.99 237.5"/><path class="cls-3" d="M233.21,237.5h-4.42L227,232.91H219l-1.68,4.59H213l7.84-20.16h4.34Zm-7.5-8-2.79-7.44-2.73,7.44Z"/><polygon class="cls-3" points="235.58 237.5 235.58 229.02 228.2 217.34 232.97 217.34 237.74 225.33 242.38 217.34 247.07 217.34 239.67 229.04 239.67 237.5 235.58 237.5"/><path class="cls-3" d="M245.34,227.55a13,13,0,0,1,.92-5.17,9.54,9.54,0,0,1,1.87-2.76,8.06,8.06,0,0,1,2.61-1.83,11.16,11.16,0,0,1,4.36-.79,9.49,9.49,0,0,1,7.12,2.76c1.78,1.85,2.66,4.42,2.66,7.7s-.88,5.8-2.63,7.62a9.38,9.38,0,0,1-7.1,2.76A9.52,9.52,0,0,1,248,235.1a10.41,10.41,0,0,1-2.64-7.55m4.2-.14a7.52,7.52,0,0,0,1.58,5.18,5.44,5.44,0,0,0,8,0,7.69,7.69,0,0,0,1.56-5.26c0-2.3-.49-4-1.52-5.16a5.16,5.16,0,0,0-4-1.7,5.22,5.22,0,0,0-4.07,1.72,7.58,7.58,0,0,0-1.54,5.2"/><path class="cls-3" d="M266.27,237.5V217.34h8.56a14.76,14.76,0,0,1,4.7.54,4.56,4.56,0,0,1,2.34,1.93,5.8,5.8,0,0,1,.89,3.2,5.43,5.43,0,0,1-1.33,3.74,6.4,6.4,0,0,1-4,1.86,9.27,9.27,0,0,1,2.16,1.69,20.17,20.17,0,0,1,2.3,3.27l2.48,3.93h-4.88l-2.92-4.39c-1.06-1.56-1.78-2.54-2.15-3a3.46,3.46,0,0,0-1.21-.83,7.58,7.58,0,0,0-2.07-.22h-.83v8.41Zm4.08-11.63h3a17.41,17.41,0,0,0,3.64-.23,2.16,2.16,0,0,0,1.15-.87,2.6,2.6,0,0,0,.41-1.51,2.32,2.32,0,0,0-.55-1.64,2.36,2.36,0,0,0-1.52-.79c-.31,0-1.31-.07-3-.07h-3.18Z"/><rect class="cls-3" x="243.8" y="266.3" width="3.79" height="3.8"/><path class="cls-3" d="M61.27,250.23h7.32a14.38,14.38,0,0,1,3.77.38,6.8,6.8,0,0,1,3,1.82,8.49,8.49,0,0,1,1.88,3.22,14.08,14.08,0,0,1,.66,4.67,13.17,13.17,0,0,1-.61,4.23A8.73,8.73,0,0,1,75.16,268a6.81,6.81,0,0,1-2.81,1.58,11.72,11.72,0,0,1-3.54.43H61.27Zm4,3.36v13.09h3a11.51,11.51,0,0,0,2.43-.18,3.78,3.78,0,0,0,1.61-.82,4.31,4.31,0,0,0,1-1.91,12.86,12.86,0,0,0,.41-3.62,11.73,11.73,0,0,0-.41-3.52,4.61,4.61,0,0,0-1.14-1.92,3.82,3.82,0,0,0-1.85-.93,19.73,19.73,0,0,0-3.29-.19Z"/><polygon class="cls-3" points="79.23 270.05 79.23 250.23 93.91 250.23 93.91 253.6 83.24 253.6 83.24 257.97 93.16 257.97 93.16 261.33 83.24 261.33 83.24 266.68 94.3 266.68 94.3 270.05 79.23 270.05"/><path class="cls-3" d="M104,250.23h7.93a23,23,0,0,1,3.5.2,5.1,5.1,0,0,1,2.06.82,5,5,0,0,1,1.52,1.64,4.74,4.74,0,0,1-.13,4.87,4.64,4.64,0,0,1-2,1.74,5.32,5.32,0,0,1,2.77,1.8,4.74,4.74,0,0,1,1,3,5.91,5.91,0,0,1-.63,2.63,5.44,5.44,0,0,1-1.71,2,5.76,5.76,0,0,1-2.69.95c-.67.06-2.28.1-4.82.12H104Zm4,3.29v4.58h2.61c1.56,0,2.52,0,2.91-.06a2.7,2.7,0,0,0,1.61-.72,2.06,2.06,0,0,0,.59-1.54,2.2,2.2,0,0,0-.51-1.5,2.28,2.28,0,0,0-1.51-.68c-.39,0-1.53-.08-3.42-.08Zm0,7.88v5.28h3.7a17.22,17.22,0,0,0,2.75-.12,2.52,2.52,0,0,0,1.46-.78,2.45,2.45,0,0,0,.56-1.68,2.4,2.4,0,0,0-1.68-2.42,13.81,13.81,0,0,0-3.56-.28Z"/><path class="cls-3" d="M122,260.25a12.86,12.86,0,0,1,.89-5.07,9.86,9.86,0,0,1,1.86-2.73,7.81,7.81,0,0,1,2.56-1.77,10.91,10.91,0,0,1,4.27-.79,9.26,9.26,0,0,1,7,2.73c1.76,1.8,2.63,4.32,2.63,7.56s-.86,5.69-2.61,7.48a9.2,9.2,0,0,1-7,2.72,9.36,9.36,0,0,1-7-2.69,10.2,10.2,0,0,1-2.61-7.44m4.13-.13a7.4,7.4,0,0,0,1.55,5.09,5.35,5.35,0,0,0,7.88,0,7.59,7.59,0,0,0,1.52-5.16,7.45,7.45,0,0,0-1.49-5.07,5,5,0,0,0-4-1.68,5.13,5.13,0,0,0-4,1.7,7.45,7.45,0,0,0-1.51,5.1"/><path class="cls-3" d="M152.89,262.8v-3.36h8.62v7.87a11,11,0,0,1-3.64,2.14,13.24,13.24,0,0,1-4.83.93,10.64,10.64,0,0,1-5.42-1.32,8.21,8.21,0,0,1-3.47-3.71,12.26,12.26,0,0,1-1.17-5.28,11.39,11.39,0,0,1,1.31-5.49,8.69,8.69,0,0,1,3.79-3.7,10.35,10.35,0,0,1,4.75-1,9.62,9.62,0,0,1,5.77,1.55,7,7,0,0,1,2.66,4.28l-4,.76a4.16,4.16,0,0,0-1.57-2.31,4.73,4.73,0,0,0-2.88-.85,5.42,5.42,0,0,0-4.16,1.66,7,7,0,0,0-1.55,4.93,7.67,7.67,0,0,0,1.57,5.27,5.19,5.19,0,0,0,4.09,1.78,7,7,0,0,0,2.52-.49,8.6,8.6,0,0,0,2.17-1.19V262.8Z"/><path class="cls-3" d="M163.23,260.25a12.49,12.49,0,0,1,.91-5.07,9.38,9.38,0,0,1,1.84-2.73,8.06,8.06,0,0,1,2.57-1.77,10.88,10.88,0,0,1,4.27-.79,9.39,9.39,0,0,1,7,2.73,10.51,10.51,0,0,1,2.61,7.56,10.39,10.39,0,0,1-2.6,7.48,9.25,9.25,0,0,1-7,2.72,9.36,9.36,0,0,1-7-2.69,10.24,10.24,0,0,1-2.61-7.44m4.13-.13a7.35,7.35,0,0,0,1.55,5.09,5,5,0,0,0,3.94,1.74,5.11,5.11,0,0,0,4-1.72,7.54,7.54,0,0,0,1.53-5.16,7.45,7.45,0,0,0-1.48-5.07,5.56,5.56,0,0,0-8,0,7.45,7.45,0,0,0-1.51,5.1"/><polygon class="cls-3" points="188.38 270.05 188.38 253.6 182.5 253.6 182.5 250.23 198.25 250.23 198.25 253.6 192.39 253.6 192.39 270.05 188.38 270.05"/><path class="cls-3" d="M216.19,270.05h-4.37l-1.72-4.52h-7.93l-1.63,4.52h-4.25L204,250.23h4.25Zm-7.39-7.88-2.74-7.32-2.65,7.32Zm-4.13-13.75,1.86-4h4.25l-3.71,4Z"/><path class="cls-3" d="M227.17,250.23h7.34a14.4,14.4,0,0,1,3.76.38,6.75,6.75,0,0,1,3,1.82,8.93,8.93,0,0,1,1.9,3.22,15,15,0,0,1,.64,4.67,12.79,12.79,0,0,1-.61,4.22,8.6,8.6,0,0,1-2.13,3.5,6.7,6.7,0,0,1-2.8,1.58,11.83,11.83,0,0,1-3.55.43h-7.54Zm4,3.36v13.09h3a11.57,11.57,0,0,0,2.43-.18,3.82,3.82,0,0,0,1.62-.82,4.42,4.42,0,0,0,1.05-1.91,13,13,0,0,0,.39-3.62,11.84,11.84,0,0,0-.39-3.52,4.43,4.43,0,0,0-1.16-1.92,3.75,3.75,0,0,0-1.83-.93,20,20,0,0,0-3.3-.19Z"/><path class="cls-3" d="M261.33,262.72,265.2,264a9,9,0,0,1-2.95,4.84,9.33,9.33,0,0,1-11.75-1.11,10.22,10.22,0,0,1-2.57-7.38c0-3.29.86-5.86,2.57-7.67a8.75,8.75,0,0,1,6.71-2.75,8.24,8.24,0,0,1,5.92,2.17,7.72,7.72,0,0,1,2,3.65l-4,.94a4.12,4.12,0,0,0-4.16-3.33,4.49,4.49,0,0,0-3.6,1.58c-.92,1.06-1.37,2.76-1.37,5.12s.44,4.28,1.35,5.34a4.35,4.35,0,0,0,3.51,1.6,4,4,0,0,0,2.75-1,5.79,5.79,0,0,0,1.65-3.21"/><rect class="cls-3" x="265.82" y="266.35" width="3.8" height="3.79"/><path class="cls-3" d="M157.8,179.59c-3.6-.52-6.66.34-7,1.91s2,3.83,5.41,4.52,5.78-.52,6.14-2.25C162.68,182.2,161.24,180.3,157.8,179.59Z"/><path class="cls-3" d="M224.54,69.15c1.6-.17,3.24-2.09,3.06-5.39-.18-3.47-2.17-6.08-4-5.91-1.63.17-3.06,2.95-2.89,6.43C220.91,67.59,222.72,69.33,224.54,69.15Z"/><path class="cls-3" d="M149.06,56.45c3.42-.17,6.14-1.56,6.31-3.31,0-1.55-2.89-3.3-6.49-3.3-3.43.18-5.22,1.92-5.22,3.48C143.47,55.07,145.45,56.63,149.06,56.45Z"/><path class="cls-3" d="M106.7,69.15c1.62.18,3.43-1.56,3.6-4.87.19-3.48-1.07-6.25-2.7-6.43-1.8-.17-3.78,2.44-4,5.91C103.46,67.06,104.9,69,106.7,69.15Z"/><path class="cls-3" d="M114.26,162.55c-2-2.79-4.87-4.17-6.33-3.31s-1.44,4,.55,6.78,4.33,3.48,5.78,2.61S116.06,165.34,114.26,162.55Z"/><path class="cls-3" d="M111.44,114.88c-.18-3.48-2.16-6.09-4-5.92-1.62.18-2.89,3-2.7,6.44.18,3.3,2,5,3.6,4.87C110.18,120.1,111.61,118.19,111.44,114.88Z"/><path class="cls-3" d="M187.3,53.33c0-1.57-1.81-3.3-5.25-3.49-3.59,0-6.46,1.75-6.46,3.3.17,1.75,2.87,3.14,6.29,3.31C185.49,56.63,187.48,55.07,187.3,53.33Z"/><path class="cls-3" d="M226.58,115.4c.2-3.48-1.27-6.26-2.87-6.44-1.82-.17-3.79,2.44-4,5.92-.17,3.3,1.45,5.21,3,5.39C224.61,120.44,226.42,118.7,226.58,115.4Z"/><path class="cls-3" d="M223.29,159.24c-1.44-.87-4.33.52-6.32,3.31s-1.61,5.22,0,6.08c1.44.87,3.8.18,5.77-2.61S224.74,160.11,223.29,159.24Z"/><path class="cls-3" d="M165.17,34.25a76.57,76.57,0,0,1-70.87-.16v127C94.3,176.64,107.1,189,123,189c15.35,0,29,2.14,42.2,10.58,13.2-8.31,26.71-10.58,42-10.58C223.05,189,236,176.64,236,161.1v-127A76.72,76.72,0,0,1,165.17,34.25Zm57,19.77s.38-2.78.93-2.78c.53-.17,1.44,2.61,1.44,2.61,1.07-1.05,3.24.17,3.24.17l-.19.53a2.16,2.16,0,0,0-2.89,1.91c0,.52-2.34.7-2.34.17a2.49,2.49,0,0,0-3.24-1.74l-.19-.34S220.74,53,222.17,54Zm1.46,3.66c4.32-.35,8.11,2.09,8.46,5.38.17,3.11-2.68,5.92-6.62,6.53,2.44.87,5-.12,6.45-.44,0,0,.5,4-5.7,2.72.25,3.26-1.82,5.66-2.6,8.89a7,7,0,0,1,1.81-1.69,9,9,0,0,1,6-1,6.45,6.45,0,0,1-2.88,4.35,8.14,8.14,0,0,1-5.16,1.31A13.53,13.53,0,0,0,224.89,89L222,91.24c-1.43-2.78-2-9.21.36-13.73,1.47-3.1,1.74-4.29,1.58-5.46-2,.71-5.91,1.68-6.44-1.68,0,0,4.41.71,6.46-.69-4-.11-7.37-2.47-7.74-5.57C216.05,60.8,219.29,57.85,223.63,57.68Zm4.77,47.81-.19.52a2.47,2.47,0,0,0-3.24,1.75c0,.51-2.35.34-2.35-.19a2.15,2.15,0,0,0-2.88-1.91l-.17-.53s2.16-1.2,3.22-.17c0,0,.92-2.77,1.44-2.6.56,0,.92,2.77.92,2.77C226.58,104.09,228.4,105.49,228.4,105.49ZM181.88,45.67c3.28,0,5.89,3.16,6,7.07,1.28-2.33.34-5.08.17-6.38,0,0,4.15-.15,2.55,5.63,3.23.12,5.5,2.2,8.66,3.2a6.41,6.41,0,0,1-1.46-1.86,7,7,0,0,1-.72-5.74,6.11,6.11,0,0,1,4.33,3.12,7.4,7.4,0,0,1,.89,5,14.46,14.46,0,0,0,5.58-1l2.18,3c-3.05,1-9.74,1-14.24-1.58-2.88-1.55-4.2-2-5.32-2,.44,1.89,1,5.88-2.27,6,0,0,1.11-4.4-.37-6.4-.18,4-3,7.09-6.47,7.09s-6.13-3.47-5.95-7.66C175.4,49,178.28,45.67,181.88,45.67ZM171.61,52.1C170.52,50.89,172,49,172,49l.55.19c-.9,1.55.89,2.94,1.81,2.94.52,0,.52,2.09,0,2.09a2.52,2.52,0,0,0-2.18,3.14h-.53s-1.27-1.93-.19-3.14c0,0-2.88-.51-2.88-1S171.61,52.1,171.61,52.1Zm-15,0c.9,0,2.7-1.39,1.79-2.94L159,49s1.45,1.92.37,3.13c0,0,3.06.53,3.06,1s-2.87,1-2.87,1c1.08,1.21-.19,3.14-.19,3.14h-.53a2.52,2.52,0,0,0-2.17-3.14C156.1,54.19,156.1,52.1,156.64,52.1Zm-33.55,2.62a14.6,14.6,0,0,0,5.59,1,7.42,7.42,0,0,1,.9-5,6,6,0,0,1,4.33-3.13,7.09,7.09,0,0,1-.72,5.73,6.14,6.14,0,0,1-1.45,1.87c3.15-1,5.4-3.08,8.65-3.2-1.6-5.78,2.54-5.63,2.54-5.63-.17,1.29-1.1,4,.18,6.38.08-3.91,2.69-7.07,5.95-7.07,3.61,0,6.5,3.3,6.5,7.47.18,4.19-2.53,7.66-5.95,7.66s-6.31-3.1-6.5-7.08c-1.45,2-.36,6.39-.36,6.39-3.31-.13-2.72-4.12-2.26-6-1.13,0-2.45.46-5.32,2a20.24,20.24,0,0,1-14.23,1.58Zm-16.39-.87s.9-2.78,1.44-2.61c.55,0,.9,2.78.9,2.78,1.45-1.05,3.25.53,3.25.53l-.19.34a2.47,2.47,0,0,0-3.23,1.74c-.18.53-2.35.35-2.35-.17,0-.87-1.26-2.61-2.89-1.91l-.17-.53S105.61,52.81,106.7,53.85Zm.9,3.83c4.32.17,7.58,3.12,7.4,6.43-.34,3.1-3.73,5.45-7.73,5.57,2,1.4,6.47.68,6.47.68-.54,3.38-4.48,2.4-6.46,1.69-.18,1.18.12,2.36,1.59,5.46,2.16,4.51,1.8,10.95.36,13.74L106.34,89a13.55,13.55,0,0,0,1.45-5.29,8,8,0,0,1-5.05-1.31A5.8,5.8,0,0,1,99.85,78a9,9,0,0,1,6,1,7.43,7.43,0,0,1,1.62,1.46c-.85-3.13-2.78-5.48-2.46-8.65-6.12,1.28-5.65-2.73-5.65-2.73,1.44.32,4,1.3,6.45.43-3.94-.6-6.81-3.41-6.64-6.52C99.49,59.77,103.28,57.33,107.6,57.68Zm4,47.46-.17.52a2.17,2.17,0,0,0-2.9,1.91c0,.53-2.15.7-2.32.18A2.49,2.49,0,0,0,103,106l-.18-.52s1.79-1.4,3.24-.35c0,0,.36-2.78.9-2.78.54-.18,1.44,2.6,1.44,2.6C109.45,103.93,111.61,105.14,111.61,105.14ZM98.27,125.31a6.84,6.84,0,0,1,5.4,1.93,4.61,4.61,0,0,1,1.88,3.06,11.1,11.1,0,0,1,.67-1.68c1.45-3.09,1.74-4.28,1.58-5.45-2,.71-5.92,1.68-6.46-1.69,0,0,4.72.77,6.66-.83-4.09.1-7.57-2.26-7.93-5.42-.17-3.31,3.07-6.27,7.4-6.62,4.33-.17,8.11,2.27,8.47,5.58.17,3.18-2.84,6-6.93,6.4,2.53,1.07,5.26,0,6.77-.32,0,0,.46,4-5.67,2.73.52,5.41-5.52,8.47-1.37,17.1l-2.89,2.25c-1.11-2.14-1.58-6.47-.75-10.41A7.32,7.32,0,0,1,99.9,130,5,5,0,0,1,98.27,125.31Zm4.26,33.4-.36-.33s.9-2.27,2.71-1.92c0,0-1.27-2.61-.73-3s2.53,1.74,2.53,1.74c.54-1.57,2.88-1.57,2.88-1.57l.19.52a2.36,2.36,0,0,0-1.63,3.32c.36.34-1.62,1.56-1.8,1.2A2.42,2.42,0,0,0,102.53,158.71Zm24,25.92a13,13,0,0,0-2.08-5,9.1,9.1,0,0,1-4.76,1.89,6.39,6.39,0,0,1-5.23-1.91,7.45,7.45,0,0,1,5.41-2.43,7,7,0,0,1,2.37.18c-2.59-2-5.66-2.77-7.52-5.49-4.15,4.49-6.22,1-6.22,1,1.35-.48,4.27-1.29,5.68-3.65-3.56,2.23-7.72,1.67-9.65-1s-.36-7,3.26-9.22,8.11-1.91,9.91.87.65,6.64-2.82,8.94c2.51.23,5.89-3,5.89-3,1.62,2.88-2.17,4.38-4.13,5,.6,1.07,1.6,1.86,4.67,3.41,4.68,2.26,8.3,7.65,9,10.77Zm22.81-2.43c-1.07-.19-3.06.87-2.69,2.6h-.53s-.91-2.08.53-3.12c0,0-2.89-1.22-2.71-1.75.19-.35,3.07-.35,3.07-.35-.89-1.56.9-3.12.9-3.12l.55.35c-1.09,1.39.35,3.12,1.26,3.3C150.23,180.29,149.7,182.38,149.32,182.2Zm33.37,4.69a14,14,0,0,0-5.21-2.11,7.32,7.32,0,0,1-7,6.82,9.16,9.16,0,0,1,2-5.58,6.92,6.92,0,0,1,1.88-1.31c-3.31.36-6.06,1.88-9.33,1.26.36,6-3.74,4.75-3.74,4.75.48-1.27,2-3.67,1.35-6.19-.88,3.77-4.18,6.34-7.49,5.66-3.42-.86-5.4-4.69-4.68-8.69.9-4.17,4.32-6.95,7.75-6.26,3.24.82,5.19,4.29,4.63,8.19,1.84-1.61,1.69-5.93,1.69-5.93,3.38.92,1.89,4.46.92,6.19,1.22.31,2.54.27,5.75-.62,5-1.57,11.7-.35,14.42,1.39Zm-17.64-13.52c-9.08-5.68-17.67-6.82-28.12-6.82a18.16,18.16,0,0,1-18.46-18.44l-.09-85.4c11.37,6.09,36.33,2,47.24-3.68,11,5.74,35.72,9.68,47.24,3.68l-.1,85.4c0,10.14-9.09,18.44-19.79,18.44C182.59,166.55,174.05,167.74,165.05,173.37Zm61.67-5.25c-1.88,2.64-5.9,3.24-9.55,1.2,1.45,2.25,4.27,3,5.57,3.49,0,0-2.06,3.53-6.19-1-1.88,2.72-4.93,3.49-7.56,5.5a6.76,6.76,0,0,1,2.4-.19,7.81,7.81,0,0,1,5.41,2.42,6.6,6.6,0,0,1-5.22,1.92,8.48,8.48,0,0,1-4.78-1.88,13,13,0,0,0-2.07,5l-3.8.16c.73-3.12,4.34-8.51,9-10.77,3.07-1.55,4.07-2.34,4.67-3.41-2-.56-5.75-2.07-4.12-5,0,0,3.24,3.14,5.74,3-3.32-2.31-4.59-6.26-2.67-9s6.31-3.13,9.93-.87S228.53,165.34,226.72,168.12Zm1.81-9.41c-.9-1.56-3.07-.86-3.61,0-.19.36-2.17-.86-2-1.2a2.27,2.27,0,0,0-1.44-3.32l.18-.52s2.33,0,2.89,1.57c0,0,2-2.08,2.52-1.74.37.36-.73,3-.73,3,1.8-.35,2.71,1.92,2.71,1.92ZM231.27,130a7.33,7.33,0,0,1-5.13,1.92c.88,3.94.29,8.27-.83,10.41l-2.86-2.25c4.3-8.63-1.73-11.68-1.36-17.11-6.14,1.31-5.49-2.72-5.49-2.72,1.32.32,4,1.39,6.56.32-4.1-.36-7.12-3.22-6.94-6.4.38-3.32,4.15-5.74,8.49-5.58,4.32.35,7.56,3.31,7.39,6.62-.35,3.16-3.84,5.52-7.93,5.42,1.93,1.59,6.66.83,6.66.83-.55,3.37-4.48,2.4-6.46,1.69-.16,1.17.14,2.36,1.6,5.45a16.14,16.14,0,0,1,.72,1.65,5.21,5.21,0,0,1,1.81-3,7,7,0,0,1,5.57-1.93A5.6,5.6,0,0,1,231.27,130Z"/><path class="cls-3" d="M139.09,142.17c-.26-.19-.5-.4-.78-.59,2.17-.76,4.93-2.34,3.42-5.14,0,0-3.46,3.64-6.12,3.41,3.69-2.48,5.15-6.64,3.22-9.67S132,126.52,128,129s-5.59,7-3.61,10.08,6.26,3.61,10.25,1.39c-1.61,2.41-4.78,3.19-6.09,3.66,0,0,2.21,4.28,7.15-1.4.28.19.52.4.78.6a4.59,4.59,0,0,1,.66-.42A8.23,8.23,0,0,1,139.09,142.17Zm-4.22-2.61c-1.61,1.05-4.15.35-6.3-2.77-2-3.14-2-6.61-.36-7.48s4.67.69,6.66,3.82C137,136.09,136.5,138.7,134.87,139.56Z"/><path class="cls-3" d="M141.85,148.1c.36.69,3.08.16.54,1.9a4.08,4.08,0,0,1-.55.28c1.4,3.83.9,7.4,1.33,9.46l4.15.17c-.37-1.81-.51-7.63-3.8-12.88a3.1,3.1,0,0,1-1.49.72S141.49,147.56,141.85,148.1Z"/><path class="cls-3" d="M126.4,129.13c.36.52,2.34-.69,2.16-1.21-.53-.88-.18-3.31,1.63-3.49v-.68s-2.71,0-3.25,1.72c0,0-2.16-2.25-2.7-2.07-.54.35.54,3.29.54,3.29-1.82-.34-2.7,2.09-2.7,2.09l.35.35C123.51,127.57,125.86,128.27,126.4,129.13Z"/><path class="cls-3" d="M188.38,148.1c.18-.54-.19-.35-.19-.35a3.23,3.23,0,0,1-1.38-.7c-3.26,5.25-3.4,11.06-3.8,12.86l4.16-.17c.42-2-.07-5.59,1.31-9.4a5.12,5.12,0,0,1-.65-.34C185.3,148.26,188,148.79,188.38,148.1Z"/><path class="cls-3" d="M202.33,129c-4-2.44-8.84-1.92-10.82,1.22s-.48,7.2,3.24,9.67c-2.68.23-6.13-3.41-6.13-3.41-1.52,2.8,1.25,4.38,3.4,5.14-.3.21-.57.43-.85.65a7.86,7.86,0,0,1,1.71.64,4.45,4.45,0,0,1,.85.51c.3-.23.58-.46.91-.69,4.91,5.68,7.14,1.4,7.14,1.4-1.32-.47-4.46-1.25-6.1-3.66,4,2.22,8.36,1.6,10.26-1.39S206.3,131.39,202.33,129Zm-.55,7.83c-2.16,3.12-4.7,3.82-6.3,2.77-1.64-.86-2.17-3.47,0-6.43,2-3.13,5-4.69,6.66-3.82S203.76,133.65,201.78,136.79Z"/><path class="cls-3" d="M146.41,153.82a7,7,0,0,0,5.42-2.6,7.43,7.43,0,0,0,2-5.91,8.07,8.07,0,0,0-5.41,2.44A8.6,8.6,0,0,0,146.41,153.82Z"/><path class="cls-3" d="M205.57,126.69s1.09-2.94.54-3.3c-.54-.17-2.69,2.08-2.69,2.08-.55-1.72-3.27-1.72-3.27-1.72v.68c1.82.18,2.18,2.61,1.63,3.49-.17.52,1.8,1.72,2.17,1.21.53-.86,2.88-1.56,4,0l.37-.35S207.39,126.35,205.57,126.69Z"/><path class="cls-3" d="M181.94,147.75a8.05,8.05,0,0,0-5.4-2.44,7.35,7.35,0,0,0,2,5.91,6.91,6.91,0,0,0,5.39,2.6A8.51,8.51,0,0,0,181.94,147.75Z"/><polygon class="cls-3" points="169.09 73.65 172.7 68.08 167.1 70.19 165.11 65.15 162.95 70.19 157.18 68.08 160.97 73.65 169.09 73.65"/><path class="cls-3" d="M191.17,142.23c-2.06-.51-2.79.47-2.79.47-.36-.12-4.87-5-8.23-8.46l3-.59c-2.18-5-8-6.1-12-9.13-3-2.28.36-3.28,1.16-2.52,7.4,6.26,14.07,1.93,14.07,1.93-5.24-1.76-7.75-7.67-7.75-7.67,10.82,6.26,19.1-.86,19.1-.86-7.19,1.22-12.8-5.57-12.8-5.57A21.69,21.69,0,0,0,203.88,105c-4.15.33-14.41-4-14.41-4,16.4-.51,17.85-12.19,18-12.19-4.52,3-16.6,1.57-16.6,1.57,17.14-6.07,15.87-20.16,15.87-20.16-3.62,5.39-20.18,10.61-20.18,10.61-4.52,1.38-8.12,5.4-8.12,10.08a4,4,0,0,1-4,3.48c-4.41,0-4.35-6.38-4.35-9.4,0-4.52-.17-9.72-3.43-9.72h-6.48c-1.17,0-3.19-.13-4,.87-1.69,2-1.43,7.1-.67,6.07a7.76,7.76,0,0,1,4.15,0c2.08.61.54,7.11.54,8.53a3.91,3.91,0,0,1-4,3.65,4,4,0,0,1-4-3.48c0-4.68-3.61-8.7-7.93-10.08,0,0-17-5.22-20.55-10.61,0,0-1.28,14.25,16,20.52,0,0-12.25,1-16.76-1.93.18,0,2.33,12.19,18.75,12.71,0,0-10.82,3.65-14.78,3.13,0,0,7.74,8.87,19.3,6.26,0,0-6.32,5.75-13.54,4.53,0,0,8.12,7.28,19.13,1.22,0,0-2.35,5.55-7.58,7.31,0,0,6.67,4.33,14.24-1.93,1-1.07,4,.17,1,2.52-4.12,3.15-10,3.91-12.5,9.13l3,.6c-3.42,3.45-8,8.33-8.45,8.45,0,0-.67-.93-2.58-.53a8.23,8.23,0,0,0-1.93.7,4.59,4.59,0,0,0-.66.42c-1.34,1-1.88,2.82-.78,3.58,0,0-.54,2.79,2.71,2.61a2.5,2.5,0,0,0,3.41.8,4.08,4.08,0,0,0,.55-.28c2.54-1.74-.18-1.21-.54-1.9-.36-.54.18-.35.18-.35a3.1,3.1,0,0,0,1.49-.72c.64-.56,1-1.34.31-2.06-.12-.23,5.87-4,10.27-6.64l.55,2.81a12,12,0,0,1,6.28-4.17,17.3,17.3,0,0,0-3.38,13.91s.7-2.26,4.32-2.62c0,0-5.05,6.09,3.06,17.92,8.11-11.83,3.44-17.92,3.44-17.92,3.6.36,4.5,2.62,4.5,2.62a17.58,17.58,0,0,0-3.61-14,11.51,11.51,0,0,1,6.32,4.28l.57-2.89c4.35,2.7,10.36,6.49,10.25,6.72-.67.73-.26,1.53.41,2.08a3.23,3.23,0,0,0,1.38.7s.37-.19.19.35c-.37.69-3.08.16-.55,1.9a5.12,5.12,0,0,0,.65.34,2.6,2.6,0,0,0,3.32-.86c3.24.18,2.72-2.61,2.72-2.61,1.06-.74.57-2.44-.79-3.49a4.45,4.45,0,0,0-.85-.51A7.86,7.86,0,0,0,191.17,142.23Zm-28.58-61.8a1.64,1.64,0,0,1-1.8-1.55,1.68,1.68,0,0,1,1.8-1.75,1.64,1.64,0,0,1,1.62,1.75A1.58,1.58,0,0,1,162.59,80.43Z"/></g></g></svg>