<svg xmlns="http://www.w3.org/2000/svg" viewBox="0 0 658.5 236.3"><defs><style>.cls-1{fill:#009ee2;}.cls-2{fill:#003e66;}</style></defs><title>logo-alcaldia</title><g id="Capa_2" data-name="Capa 2"><g id="Capa_1-2" data-name="Capa 1"><rect class="cls-1" x="284.83" width="4.73" height="236.29"/><path class="cls-1" d="M351.24,108.71c2.92,0,4.69-1,4.69-3.27v-.08c0-2-1.51-3.28-4.9-3.28h-7.66v6.63Zm-1.76-12.13c2.92,0,4.77-1,4.77-3.18v-.09c0-2-1.55-3.09-4.34-3.09h-6.54v6.36Zm-12.56-8.86a3.28,3.28,0,0,1,3.31-3.31H350.9c3.43,0,6.14,1,7.87,2.67a6.9,6.9,0,0,1,2.06,5.11v.09a7,7,0,0,1-4,6.5c3.49,1.33,5.64,3.35,5.64,7.39v.09c0,5.5-4.48,8.25-11.27,8.25h-11a3.28,3.28,0,0,1-3.31-3.3Z"/><path class="cls-1" d="M398.36,94.85v-.12c0-6.78-5-12.43-12-12.43s-11.87,5.54-11.87,12.32v.11c0,6.78,5,12.44,12,12.44s11.86-5.54,11.86-12.32m-32.94,0v-.12c0-11.25,8.87-20.46,21.08-20.46s21,9.1,21,20.35v.11c0,11.25-8.87,20.46-21.08,20.46s-21-9.09-21-20.34"/><path class="cls-1" d="M411.69,89.72v-.15c0-14.18,11.05-25.79,26.16-25.79,7.55,0,12.54,1.71,17,4.84A5.49,5.49,0,0,1,457.16,73a5.43,5.43,0,0,1-8.77,4.27,17.44,17.44,0,0,0-10.9-3.41c-8,0-14.32,7-14.32,15.53v.14c0,9.12,6.27,15.83,15.1,15.83a17.58,17.58,0,0,0,10.34-3V95.27h-7.42a4.71,4.71,0,0,1-4.77-4.7,4.78,4.78,0,0,1,4.77-4.78h12.55a5.45,5.45,0,0,1,5.49,5.49V103.4a7.43,7.43,0,0,1-3.85,7,33.17,33.17,0,0,1-17.47,5c-15.53,0-26.22-10.9-26.22-25.65"/><path class="cls-1" d="M513.21,84.16V84c0-10.47-7.68-19.19-18.5-19.19s-18.31,8.54-18.31,19V84c0,10.47,7.67,19.19,18.49,19.19s18.32-8.54,18.32-19m-50.86,0V84c0-17.36,13.7-31.58,32.54-31.58s32.36,14.05,32.36,31.4V84c0,17.36-13.69,31.58-32.54,31.58s-32.36-14-32.36-31.4"/><path class="cls-1" d="M543.28,56.24H527.82a7.42,7.42,0,0,1,0-14.83h47a7.42,7.42,0,0,1,0,14.83H559.36V107.1a8,8,0,1,1-16.08,0Z"/><path class="cls-1" d="M609.7,18.06a6.82,6.82,0,0,1,1.23-3.32l6.75-10.56a8,8,0,0,1,7-4.18c4.55,0,10.45,2.83,10.45,5.65,0,1.73-1,3.08-2.46,4.43l-7.61,7.12c-3.56,3.32-6.52,4.06-10.69,4.06-2.7,0-4.67-1.23-4.67-3.2m17,60.46L614.74,50.13,602.82,78.52Zm-53.2,23.83,30-67.7c2.09-4.67,5.9-7.49,11.06-7.49h1.11c5.16,0,8.84,2.82,10.93,7.49l30,67.7a9.28,9.28,0,0,1,1,3.81,9,9,0,0,1-9,9.09c-4.43,0-7.38-2.58-9.1-6.51l-5.77-13.51H595.82l-6,14.12a9.29,9.29,0,0,1-8.72,5.9,8.7,8.7,0,0,1-8.72-8.84,9.94,9.94,0,0,1,1.11-4.06"/><path class="cls-2" d="M336.88,133.65a7,7,0,0,1,7-7h1.55a7.21,7.21,0,0,1,6.37,3.64l16.91,27.56,17-27.64a6.87,6.87,0,0,1,6.28-3.56h1.55a7,7,0,0,1,7,7v50.57a7,7,0,1,1-13.92,0V152.48l-12.28,18.91c-1.45,2.19-3.27,3.55-5.82,3.55s-4.37-1.36-5.82-3.55l-12.1-18.64V184.4a6.83,6.83,0,0,1-6.91,6.82,6.75,6.75,0,0,1-6.82-6.82Z"/><path class="cls-2" d="M415.83,183.67V134a6.94,6.94,0,0,1,7-7h35.29a6.29,6.29,0,0,1,6.28,6.27,6.21,6.21,0,0,1-6.28,6.19H429.74v12.92H454a6.28,6.28,0,0,1,6.27,6.27,6.21,6.21,0,0,1-6.27,6.19H429.74v13.37h28.84a6.3,6.3,0,0,1,6.28,6.27,6.22,6.22,0,0,1-6.28,6.19H422.83a7,7,0,0,1-7-7"/><path class="cls-2" d="M474.41,186a7,7,0,0,1-2.64-5.37,6.64,6.64,0,0,1,6.63-6.73,6.29,6.29,0,0,1,4.19,1.46c2.82,2.09,5.27,3.18,8.46,3.18,5.45,0,8.73-3.18,8.73-10.55V133.47a7,7,0,1,1,14,0v35.19c0,7.56-2.18,13.2-6,17s-9.65,5.91-16.56,5.91A26.91,26.91,0,0,1,474.41,186"/><path class="cls-2" d="M578.28,159v-.19c0-10.91-8-20-19.29-20s-19.1,8.91-19.1,19.83v.18c0,10.92,8,20,19.28,20s19.11-8.91,19.11-19.82m-53,0v-.19c0-18.1,14.28-32.92,33.92-32.92s33.75,14.64,33.75,32.74v.18c0,18.1-14.28,32.93-33.93,32.93S525.25,177.13,525.25,159"/><path class="cls-2" d="M633.58,157.93c6.82,0,10.73-3.63,10.73-9v-.19c0-6-4.19-9.09-11-9.09H619.39v18.28ZM605.38,134a7,7,0,0,1,7-7h22.1c8.1,0,14.38,2.27,18.56,6.46C656.59,137,658.5,142,658.5,148v.18c0,10-5,16.19-12.73,19.37l9.73,11.83c1.36,1.73,2.27,3.18,2.27,5.36a6.52,6.52,0,0,1-6.64,6.46,8.37,8.37,0,0,1-6.91-3.64L630.58,170.3H619.39v13.92a7,7,0,0,1-14,0Z"/><path class="cls-2" d="M350,219.29c3.64,0,5.77-2.18,5.77-5v-.09c0-3.27-2.27-5-5.92-5h-5.63v10.13Zm-13.08-13.07a3.62,3.62,0,0,1,3.65-3.65h9.9c7.91,0,12.69,4.69,12.69,11.46v.1c0,7.67-6,11.65-13.4,11.65h-5.54v6.58a3.65,3.65,0,0,1-7.3,0Z"/><path class="cls-2" d="M384.8,221.85l-4.59-10.94-4.6,10.94ZM364.3,231l11.55-26.1a4.51,4.51,0,0,1,4.26-2.89h.43a4.43,4.43,0,0,1,4.21,2.89L396.31,231a3.49,3.49,0,0,1,.38,1.47,3.45,3.45,0,0,1-3.46,3.5,3.7,3.7,0,0,1-3.5-2.51l-2.23-5.21H372.92l-2.33,5.45a3.57,3.57,0,0,1-3.36,2.27,3.36,3.36,0,0,1-3.36-3.41,3.81,3.81,0,0,1,.43-1.56"/><path class="cls-2" d="M417.1,218.68c3.56,0,5.59-1.9,5.59-4.69v-.1c0-3.12-2.18-4.73-5.73-4.73h-7.25v9.52Zm-14.68-12.46a3.62,3.62,0,0,1,3.65-3.65h11.5c4.22,0,7.49,1.19,9.67,3.37a10.39,10.39,0,0,1,2.84,7.57v.1c0,5.21-2.61,8.43-6.63,10.09l5.07,6.15a4.26,4.26,0,0,1,1.18,2.8,3.39,3.39,0,0,1-3.46,3.36,4.41,4.41,0,0,1-3.6-1.89l-7.1-9h-5.83v7.25a3.65,3.65,0,1,1-7.29,0Z"/><path class="cls-2" d="M455.32,221.85l-4.59-10.94-4.59,10.94ZM434.82,231l11.55-26.1a4.52,4.52,0,0,1,4.27-2.89h.42a4.43,4.43,0,0,1,4.21,2.89L466.83,231a3.65,3.65,0,0,1,.38,1.47,3.45,3.45,0,0,1-3.46,3.5,3.7,3.7,0,0,1-3.5-2.51L458,228.29H443.44l-2.33,5.45a3.57,3.57,0,0,1-3.36,2.27,3.36,3.36,0,0,1-3.36-3.41,3.81,3.81,0,0,1,.43-1.56"/><path class="cls-2" d="M494.87,209.3h-7a3.37,3.37,0,0,1,0-6.73h21.31a3.37,3.37,0,0,1,0,6.73h-7v23.07a3.65,3.65,0,0,1-7.29,0Z"/><path class="cls-2" d="M542.56,219.24v-.09c0-5.68-4.17-10.42-10-10.42s-9.94,4.64-9.94,10.32v.1c0,5.68,4.16,10.42,10,10.42s9.94-4.64,9.94-10.33m-27.61,0v-.09c0-9.43,7.44-17.15,17.67-17.15s17.57,7.63,17.57,17.05v.1c0,9.42-7.44,17.14-17.67,17.14s-17.57-7.62-17.57-17"/><path class="cls-2" d="M569.6,229.15c6,0,10-4,10-9.9v-.1c0-5.87-4-10-10-10H564v20Zm-12.93-22.93a3.63,3.63,0,0,1,3.65-3.65h9.28c10.42,0,17.62,7.16,17.62,16.49v.09c0,9.33-7.2,16.58-17.62,16.58h-9.28a3.63,3.63,0,0,1-3.65-3.65Z"/><path class="cls-2" d="M619.86,219.24v-.09c0-5.68-4.18-10.42-10.05-10.42s-9.94,4.64-9.94,10.32v.1c0,5.68,4.16,10.42,10,10.42s10-4.64,10-10.33m-27.62,0v-.09c0-9.43,7.44-17.15,17.67-17.15s17.57,7.63,17.57,17.05v.1c0,9.42-7.43,17.14-17.67,17.14s-17.57-7.62-17.57-17"/><path class="cls-2" d="M633.07,232.22a3.4,3.4,0,0,1-1.38-2.74,3.36,3.36,0,0,1,3.41-3.37,3.55,3.55,0,0,1,2.09.66,14,14,0,0,0,8.48,3c3,0,4.78-1.19,4.78-3.13v-.1c0-1.84-1.14-2.79-6.68-4.21-6.68-1.7-11-3.55-11-10.13v-.1c0-6,4.84-10,11.61-10A19.27,19.27,0,0,1,654.9,205a3.38,3.38,0,0,1-1.8,6.26,3.47,3.47,0,0,1-1.84-.52,13.73,13.73,0,0,0-7-2.23c-2.79,0-4.26,1.28-4.26,2.89v.1c0,2.17,1.42,2.88,7.15,4.35,6.73,1.75,10.52,4.17,10.52,10v.09c0,6.58-5,10.28-12.18,10.28a21.41,21.41,0,0,1-12.45-4"/><path class="cls-2" d="M20.24,203.42H15.81l-1.74-4.59H6l-1.67,4.59H0l7.85-20.16h4.33Zm-7.5-8L10,188l-2.71,7.44Z"/><polygon class="cls-2" points="21.33 203.41 21.33 183.43 25.41 183.43 25.41 200.01 35.52 200.01 35.52 203.41 21.33 203.41"/><path class="cls-2" d="M49.15,196l3.94,1.27a9,9,0,0,1-3,4.93,8.71,8.71,0,0,1-5.37,1.6,8.67,8.67,0,0,1-6.6-2.74,10.45,10.45,0,0,1-2.59-7.5c0-3.36.85-6,2.6-7.82A8.93,8.93,0,0,1,45,182.92a8.4,8.4,0,0,1,6,2.19,8,8,0,0,1,2.07,3.71l-4,1a4.22,4.22,0,0,0-1.49-2.48,4.32,4.32,0,0,0-2.75-.91A4.61,4.61,0,0,0,41.11,188q-1.39,1.59-1.4,5.19c0,2.56.46,4.36,1.38,5.44a4.49,4.49,0,0,0,3.58,1.63,4.06,4.06,0,0,0,2.79-1A6.18,6.18,0,0,0,49.15,196"/><path class="cls-2" d="M73.35,203.42H68.91l-1.76-4.59H59.09l-1.68,4.59H53.09l7.85-20.16h4.33Zm-7.51-8L63.06,188l-2.73,7.44Z"/><polygon class="cls-2" points="74.81 203.41 74.81 183.43 78.89 183.43 78.89 200.01 89.01 200.01 89.01 203.41 74.81 203.41"/><path class="cls-2" d="M90.64,183.25h7.44a14.5,14.5,0,0,1,3.85.39,6.78,6.78,0,0,1,3,1.86,8.69,8.69,0,0,1,1.93,3.26,14.94,14.94,0,0,1,.65,4.77,13.05,13.05,0,0,1-.61,4.29,8.71,8.71,0,0,1-2.16,3.56,6.92,6.92,0,0,1-2.86,1.61,12.19,12.19,0,0,1-3.6.42H90.64Zm4.08,3.43V200h3a10.36,10.36,0,0,0,2.47-.2,3.72,3.72,0,0,0,1.65-.82,4.55,4.55,0,0,0,1.06-1.95,13.29,13.29,0,0,0,.41-3.68,12.25,12.25,0,0,0-.41-3.59,4.74,4.74,0,0,0-1.15-1.95,4.09,4.09,0,0,0-1.88-.95,20.09,20.09,0,0,0-3.35-.18Z"/><path class="cls-2" d="M110.4,181.4l1.89-4.1h4.32l-3.76,4.1Zm-1,1.85h4.08v20.16h-4.08Z"/><path class="cls-2" d="M135.59,203.42h-4.43l-1.76-4.59h-8.06l-1.67,4.59h-4.32l7.85-20.16h4.34Zm-7.49-8L125.31,188l-2.72,7.44Z"/><polygon class="cls-2" points="145.1 203.41 145.1 183.25 151.19 183.25 154.84 197.01 158.47 183.25 164.56 183.25 164.56 203.41 160.78 203.41 160.78 187.55 156.77 203.41 152.85 203.41 148.88 187.55 148.87 203.41 145.1 203.41"/><path class="cls-2" d="M186.32,203.42h-4.43l-1.77-4.59h-8.06l-1.69,4.59h-4.31l7.84-20.16h4.35Zm-7.5-8L176,188l-2.74,7.44Z"/><polygon class="cls-2" points="188.68 203.41 188.68 194.94 181.3 183.25 186.07 183.25 190.84 191.25 195.49 183.25 200.18 183.25 192.77 194.96 192.77 203.41 188.68 203.41"/><path class="cls-2" d="M198.44,193.46a12.8,12.8,0,0,1,.93-5.16,9.32,9.32,0,0,1,1.86-2.76,8.2,8.2,0,0,1,2.62-1.83,11.11,11.11,0,0,1,4.35-.79,9.5,9.5,0,0,1,7.13,2.76c1.78,1.84,2.66,4.41,2.66,7.69s-.88,5.81-2.63,7.63a10.63,10.63,0,0,1-14.27,0,10.46,10.46,0,0,1-2.65-7.56m4.21-.13a7.55,7.55,0,0,0,1.57,5.18,5.17,5.17,0,0,0,4,1.76,5.07,5.07,0,0,0,4-1.75,7.63,7.63,0,0,0,1.57-5.25,7.5,7.5,0,0,0-1.53-5.17,5.13,5.13,0,0,0-4-1.7,5.25,5.25,0,0,0-4.06,1.72,7.58,7.58,0,0,0-1.54,5.21"/><path class="cls-2" d="M219.37,203.42V183.26h8.57a14.81,14.81,0,0,1,4.7.54,4.45,4.45,0,0,1,2.33,1.93,5.67,5.67,0,0,1,.89,3.2,5.44,5.44,0,0,1-1.32,3.74,6.51,6.51,0,0,1-4,1.86,9.07,9.07,0,0,1,2.17,1.69,20.54,20.54,0,0,1,2.29,3.26l2.49,3.94h-4.88L229.71,199a34.32,34.32,0,0,0-2.14-3,3.49,3.49,0,0,0-1.22-.83,7.48,7.48,0,0,0-2.07-.22h-.82v8.41Zm4.09-11.63h3a16.38,16.38,0,0,0,3.64-.24,2.12,2.12,0,0,0,1.15-.87,2.57,2.57,0,0,0,.41-1.5,2.3,2.3,0,0,0-2.06-2.44c-.32,0-1.31-.06-3-.06h-3.18Z"/><rect class="cls-2" x="196.9" y="232.22" width="3.79" height="3.8"/><path class="cls-2" d="M14.37,216.14h7.32a14.33,14.33,0,0,1,3.77.38,6.82,6.82,0,0,1,3,1.83,8.54,8.54,0,0,1,1.89,3.21,14.41,14.41,0,0,1,.65,4.67,13.47,13.47,0,0,1-.6,4.23A8.77,8.77,0,0,1,28.27,234a6.8,6.8,0,0,1-2.82,1.58,11.38,11.38,0,0,1-3.53.43H14.37Zm4,3.37V232.6h3a10.67,10.67,0,0,0,2.42-.19,3.71,3.71,0,0,0,1.62-.82,4.43,4.43,0,0,0,1-1.9,13,13,0,0,0,.41-3.63,11.77,11.77,0,0,0-.41-3.52,4.56,4.56,0,0,0-1.13-1.91,3.82,3.82,0,0,0-1.86-.93,18.66,18.66,0,0,0-3.29-.19Z"/><polygon class="cls-2" points="32.33 235.96 32.33 216.14 47.01 216.14 47.01 219.51 36.34 219.51 36.34 223.89 46.26 223.89 46.26 227.25 36.34 227.25 36.34 232.6 47.4 232.6 47.4 235.96 32.33 235.96"/><path class="cls-2" d="M57.07,216.15H65a21.66,21.66,0,0,1,3.5.2,5,5,0,0,1,2.06.81,5.24,5.24,0,0,1,1.53,1.64,4.79,4.79,0,0,1-.14,4.88,4.68,4.68,0,0,1-2,1.74,5.28,5.28,0,0,1,2.76,1.79,4.78,4.78,0,0,1,1,3,6,6,0,0,1-.62,2.63,5.53,5.53,0,0,1-1.71,2,5.84,5.84,0,0,1-2.7,1c-.66.07-2.28.11-4.82.13H57.07Zm4,3.29V224H63.7c1.56,0,2.51,0,2.9-.07a2.73,2.73,0,0,0,1.61-.71,2.06,2.06,0,0,0,.59-1.54,2.2,2.2,0,0,0-.51-1.5,2.23,2.23,0,0,0-1.51-.68c-.38-.05-1.52-.08-3.41-.08Zm0,7.88v5.28h3.69a18.66,18.66,0,0,0,2.76-.12,2.56,2.56,0,0,0,1.45-.79,2.39,2.39,0,0,0,.57-1.68,2.41,2.41,0,0,0-1.69-2.42,13.92,13.92,0,0,0-3.55-.27Z"/><path class="cls-2" d="M75.07,226.17a12.85,12.85,0,0,1,.9-5.07,9.62,9.62,0,0,1,1.85-2.73,7.87,7.87,0,0,1,2.56-1.77,10.93,10.93,0,0,1,4.28-.79,9.22,9.22,0,0,1,7,2.73c1.76,1.8,2.63,4.31,2.63,7.55s-.86,5.7-2.6,7.49a9.22,9.22,0,0,1-7,2.71,9.32,9.32,0,0,1-7-2.68,10.23,10.23,0,0,1-2.62-7.44M79.2,226a7.34,7.34,0,0,0,1.56,5.08,5.33,5.33,0,0,0,7.87,0A7.58,7.58,0,0,0,90.16,226a7.47,7.47,0,0,0-1.49-5.07,5.54,5.54,0,0,0-8,0A7.46,7.46,0,0,0,79.2,226"/><path class="cls-2" d="M106,228.72v-3.37h8.63v7.87a11,11,0,0,1-3.65,2.15,13.19,13.19,0,0,1-4.82.93,10.69,10.69,0,0,1-5.42-1.32,8.2,8.2,0,0,1-3.48-3.72A12.24,12.24,0,0,1,96.09,226a11.36,11.36,0,0,1,1.3-5.49,8.69,8.69,0,0,1,3.79-3.7,10.25,10.25,0,0,1,4.75-1,9.58,9.58,0,0,1,5.77,1.54,7,7,0,0,1,2.66,4.29l-4,.75a4.3,4.3,0,0,0-1.57-2.31,4.73,4.73,0,0,0-2.89-.84,5.37,5.37,0,0,0-4.15,1.66,7,7,0,0,0-1.56,4.93,7.67,7.67,0,0,0,1.57,5.27,5.22,5.22,0,0,0,4.1,1.77,7.05,7.05,0,0,0,2.52-.49,8.4,8.4,0,0,0,2.16-1.19v-2.47Z"/><path class="cls-2" d="M116.34,226.17a12.5,12.5,0,0,1,.9-5.07,9.62,9.62,0,0,1,1.85-2.73,7.87,7.87,0,0,1,2.56-1.77,10.91,10.91,0,0,1,4.27-.79,9.36,9.36,0,0,1,7,2.73c1.73,1.8,2.61,4.31,2.61,7.55a10.45,10.45,0,0,1-2.59,7.49,9.24,9.24,0,0,1-7,2.71,9.37,9.37,0,0,1-7-2.68,10.27,10.27,0,0,1-2.6-7.44m4.13-.13a7.38,7.38,0,0,0,1.54,5.08,5,5,0,0,0,3.94,1.75,5.13,5.13,0,0,0,4-1.72,7.58,7.58,0,0,0,1.52-5.17,7.42,7.42,0,0,0-1.48-5.07,5.57,5.57,0,0,0-8,0,7.41,7.41,0,0,0-1.51,5.11"/><polygon class="cls-2" points="141.49 235.96 141.49 219.51 135.6 219.51 135.6 216.14 151.36 216.14 151.36 219.51 145.49 219.51 145.49 235.96 141.49 235.96"/><path class="cls-2" d="M169.29,236h-4.37l-1.72-4.51h-7.93L153.64,236h-4.25l7.71-19.82h4.26Zm-7.38-7.87-2.74-7.32-2.65,7.32Zm-4.13-13.76,1.86-4h4.24l-3.7,4Z"/><path class="cls-2" d="M180.28,216.14h7.33a14.48,14.48,0,0,1,3.77.38,6.82,6.82,0,0,1,3,1.83,9.1,9.1,0,0,1,1.89,3.21,14.71,14.71,0,0,1,.64,4.67,13.19,13.19,0,0,1-.6,4.23,8.78,8.78,0,0,1-2.13,3.49,6.66,6.66,0,0,1-2.8,1.58,11.63,11.63,0,0,1-3.56.43h-7.53Zm4,3.37V232.6h3a10.67,10.67,0,0,0,2.42-.19,3.7,3.7,0,0,0,1.63-.82,4.43,4.43,0,0,0,1-1.9,13,13,0,0,0,.4-3.63,11.83,11.83,0,0,0-.4-3.52,4.48,4.48,0,0,0-1.15-1.91,3.71,3.71,0,0,0-1.84-.93,18.82,18.82,0,0,0-3.29-.19Z"/><path class="cls-2" d="M214.44,228.64l3.86,1.23a8.89,8.89,0,0,1-3,4.85,9.33,9.33,0,0,1-11.75-1.11,10.29,10.29,0,0,1-2.57-7.39c0-3.29.87-5.85,2.57-7.66a8.74,8.74,0,0,1,6.72-2.75,8.23,8.23,0,0,1,5.91,2.16,7.68,7.68,0,0,1,2,3.66l-4,.94a4.12,4.12,0,0,0-4.16-3.33,4.49,4.49,0,0,0-3.6,1.58c-.92,1.05-1.36,2.76-1.36,5.12s.44,4.28,1.35,5.34a4.34,4.34,0,0,0,3.5,1.59,4,4,0,0,0,2.75-1,5.89,5.89,0,0,0,1.66-3.21"/><rect class="cls-2" x="218.92" y="232.27" width="3.8" height="3.79"/><path class="cls-2" d="M110.91,145.5c-3.61-.52-6.67.35-7,1.92s2,3.83,5.41,4.52,5.78-.52,6.13-2.25C115.78,148.12,114.34,146.21,110.91,145.5Z"/><path class="cls-2" d="M177.64,35.07c1.61-.17,3.24-2.09,3.06-5.4-.17-3.47-2.16-6.08-4-5.9-1.62.17-3,2.95-2.88,6.43C174,33.51,175.82,35.24,177.64,35.07Z"/><path class="cls-2" d="M102.16,22.37c3.43-.17,6.14-1.57,6.32-3.31,0-1.55-2.89-3.3-6.5-3.3-3.42.18-5.22,1.91-5.22,3.48C96.57,21,98.56,22.55,102.16,22.37Z"/><path class="cls-2" d="M59.8,35.07c1.62.17,3.43-1.57,3.6-4.87.19-3.48-1.07-6.26-2.7-6.43-1.8-.18-3.78,2.43-4,5.9C56.56,33,58,34.9,59.8,35.07Z"/><path class="cls-2" d="M67.36,128.46c-2-2.78-4.87-4.17-6.32-3.3s-1.44,4,.54,6.77,4.34,3.49,5.78,2.62S69.16,131.26,67.36,128.46Z"/><path class="cls-2" d="M64.55,80.8c-.19-3.49-2.17-6.09-4-5.92-1.62.18-2.88,3-2.69,6.44.17,3.29,2,5,3.6,4.87C63.29,86,64.71,84.1,64.55,80.8Z"/><path class="cls-2" d="M140.41,19.24c0-1.57-1.82-3.3-5.25-3.48-3.6,0-6.47,1.75-6.47,3.3.17,1.74,2.87,3.13,6.29,3.31C138.59,22.55,140.58,21,140.41,19.24Z"/><path class="cls-2" d="M179.69,81.32c.19-3.48-1.28-6.26-2.87-6.44-1.82-.17-3.8,2.43-4,5.92-.18,3.3,1.44,5.21,3,5.39C177.72,86.36,179.52,84.62,179.69,81.32Z"/><path class="cls-2" d="M176.39,125.16c-1.43-.87-4.33.52-6.31,3.31s-1.61,5.21,0,6.08c1.43.87,3.79.18,5.77-2.61S177.84,126,176.39,125.16Z"/><path class="cls-2" d="M118.27.17A76.57,76.57,0,0,1,47.4,0V127c0,15.54,12.81,27.88,28.67,27.88,15.36,0,29,2.13,42.2,10.57,13.2-8.3,26.72-10.57,42.05-10.57,15.84,0,28.82-12.34,28.82-27.88V0A76.72,76.72,0,0,1,118.27.17Zm57,19.76s.37-2.77.92-2.77c.53-.18,1.44,2.61,1.44,2.61,1.07-1.05,3.24.16,3.24.16l-.18.53a2.16,2.16,0,0,0-2.89,1.92c0,.52-2.35.69-2.35.16a2.48,2.48,0,0,0-3.23-1.74l-.2-.34S173.85,18.89,175.28,19.93Zm1.45,3.66c4.33-.35,8.12,2.09,8.47,5.39.17,3.11-2.68,5.92-6.62,6.52,2.43.87,5-.12,6.45-.43,0,0,.49,4-5.71,2.72.25,3.25-1.82,5.65-2.6,8.88A7.28,7.28,0,0,1,178.54,45a9,9,0,0,1,6-1,6.43,6.43,0,0,1-2.88,4.35,8,8,0,0,1-5.15,1.31A13.54,13.54,0,0,0,178,54.9l-2.88,2.26c-1.43-2.79-2-9.22.35-13.74,1.47-3.09,1.75-4.28,1.59-5.45-2,.7-5.91,1.67-6.44-1.69,0,0,4.4.72,6.45-.68-4-.11-7.37-2.47-7.73-5.58C169.15,26.72,172.4,23.77,176.73,23.59Zm4.78,47.82-.2.52a2.47,2.47,0,0,0-3.24,1.74c0,.52-2.35.34-2.35-.19a2.16,2.16,0,0,0-2.87-1.91l-.18-.52s2.16-1.21,3.22-.17c0,0,.93-2.78,1.45-2.6.56,0,.91,2.77.91,2.77C179.69,70,181.51,71.41,181.51,71.41ZM135,11.59c3.28,0,5.89,3.16,6,7.07,1.29-2.34.35-5.09.17-6.38,0,0,4.16-.15,2.56,5.62,3.23.13,5.49,2.2,8.66,3.2a6.15,6.15,0,0,1-1.47-1.86,7,7,0,0,1-.71-5.74,6.1,6.1,0,0,1,4.32,3.13,7.39,7.39,0,0,1,.89,5,14.43,14.43,0,0,0,5.58-1l2.18,3c-3,1-9.74,1-14.24-1.58-2.88-1.55-4.19-2-5.32-2,.45,1.88,1.05,5.87-2.26,6,0,0,1.1-4.39-.37-6.39-.18,4-3,7.09-6.48,7.09s-6.12-3.48-5.95-7.66C128.5,14.89,131.38,11.59,135,11.59ZM124.72,18c-1.09-1.22.35-3.13.35-3.13l.54.18c-.89,1.56.9,2.95,1.81,2.95.53,0,.53,2.09,0,2.09a2.52,2.52,0,0,0-2.18,3.13h-.52s-1.28-1.92-.2-3.13c0,0-2.88-.52-2.88-1.05S124.72,18,124.72,18Zm-15,0c.91,0,2.7-1.39,1.8-2.95l.54-.18s1.44,1.91.36,3.13c0,0,3.07.53,3.07,1s-2.87,1.05-2.87,1.05c1.07,1.21-.2,3.13-.2,3.13h-.53a2.51,2.51,0,0,0-2.17-3.13C109.2,20.11,109.2,18,109.74,18ZM76.2,20.64a14.75,14.75,0,0,0,5.58,1,7.47,7.47,0,0,1,.91-5A6,6,0,0,1,87,13.5a7.15,7.15,0,0,1-.73,5.74,5.8,5.8,0,0,1-1.45,1.86c3.16-1,5.41-3.07,8.66-3.2C91.9,12.13,96,12.28,96,12.28c-.18,1.29-1.1,4,.17,6.38.09-3.91,2.69-7.07,6-7.07,3.61,0,6.5,3.3,6.5,7.47.18,4.18-2.53,7.66-6,7.66s-6.31-3.1-6.49-7.09c-1.46,2-.36,6.39-.36,6.39-3.32-.12-2.73-4.12-2.26-6-1.14,0-2.46.45-5.32,2A20.2,20.2,0,0,1,74,23.59Zm-16.4-.88s.9-2.77,1.44-2.61c.56,0,.9,2.78.9,2.78,1.45-1,3.26.53,3.26.53l-.19.34A2.49,2.49,0,0,0,62,22.54c-.17.54-2.35.35-2.35-.16,0-.87-1.26-2.62-2.88-1.92l-.18-.53S58.72,18.72,59.8,19.76Zm.9,3.83c4.33.18,7.58,3.13,7.4,6.43-.33,3.11-3.73,5.46-7.73,5.58,2.05,1.4,6.47.68,6.47.68-.54,3.38-4.48,2.39-6.45,1.68-.18,1.18.11,2.37,1.58,5.46,2.16,4.52,1.81,10.95.36,13.74L59.44,54.9a13.38,13.38,0,0,0,1.45-5.3,7.94,7.94,0,0,1-5-1.3A5.78,5.78,0,0,1,53,43.94a9,9,0,0,1,5.94,1,7.73,7.73,0,0,1,1.62,1.47c-.84-3.13-2.77-5.49-2.46-8.66-6.12,1.29-5.64-2.72-5.64-2.72,1.43.31,4,1.3,6.45.43-3.95-.61-6.81-3.41-6.65-6.52C52.59,25.68,56.38,23.24,60.7,23.59Zm4,47.46-.18.52a2.16,2.16,0,0,0-2.89,1.91c0,.53-2.15.71-2.33.19a2.48,2.48,0,0,0-3.25-1.74l-.18-.53s1.8-1.39,3.24-.35c0,0,.37-2.77.9-2.77.54-.18,1.44,2.6,1.44,2.6C62.56,69.84,64.72,71.05,64.72,71.05ZM51.38,91.23a6.86,6.86,0,0,1,5.4,1.92,4.7,4.7,0,0,1,1.88,3.06,12.08,12.08,0,0,1,.66-1.67c1.45-3.09,1.74-4.28,1.58-5.45-2,.7-5.92,1.67-6.46-1.69,0,0,4.72.76,6.67-.83-4.09.1-7.58-2.26-7.93-5.42-.17-3.31,3.06-6.27,7.39-6.63,4.33-.16,8.12,2.27,8.48,5.58.17,3.19-2.84,6-6.94,6.4,2.54,1.08,5.27,0,6.77-.31,0,0,.47,4-5.66,2.72.52,5.42-5.53,8.48-1.37,17.11L59,108.26c-1.11-2.13-1.57-6.47-.74-10.4A7.3,7.3,0,0,1,53,95.93,5,5,0,0,1,51.38,91.23Zm4.25,33.4-.36-.34s.91-2.26,2.71-1.91c0,0-1.27-2.61-.73-3s2.53,1.73,2.53,1.73c.55-1.56,2.89-1.56,2.89-1.56l.18.52a2.36,2.36,0,0,0-1.63,3.31c.36.35-1.62,1.57-1.8,1.21A2.42,2.42,0,0,0,55.63,124.63Zm24,25.92a13.34,13.34,0,0,0-2.08-5,9.17,9.17,0,0,1-4.77,1.89,6.38,6.38,0,0,1-5.23-1.92A7.5,7.5,0,0,1,73,143.07a7.37,7.37,0,0,1,2.38.18c-2.59-2-5.67-2.76-7.53-5.49-4.15,4.5-6.22,1-6.22,1,1.36-.49,4.28-1.29,5.69-3.66-3.56,2.24-7.72,1.68-9.65-1s-.37-7,3.25-9.22,8.11-1.91,9.92.87.64,6.63-2.82,8.94c2.5.23,5.89-3,5.89-3,1.61,2.88-2.18,4.38-4.13,4.95.6,1.07,1.6,1.86,4.66,3.4,4.68,2.27,8.3,7.66,9,10.78Zm22.81-2.43c-1.08-.19-3.06.87-2.7,2.6H99.2s-.91-2.08.53-3.12c0,0-2.88-1.23-2.71-1.75.2-.35,3.08-.35,3.08-.35-.9-1.56.89-3.13.89-3.13l.55.35c-1.09,1.4.36,3.13,1.26,3.31C103.34,146.21,102.8,148.29,102.43,148.12Zm33.37,4.69a14.4,14.4,0,0,0-5.21-2.12,7.34,7.34,0,0,1-7,6.82,9.12,9.12,0,0,1,2-5.57,7,7,0,0,1,1.89-1.32c-3.32.37-6.07,1.89-9.34,1.27.37,6-3.74,4.74-3.74,4.74.49-1.26,2-3.66,1.36-6.18-.89,3.77-4.18,6.33-7.49,5.66-3.43-.87-5.41-4.69-4.69-8.69.9-4.17,4.33-7,7.75-6.26,3.25.82,5.19,4.29,4.63,8.18,1.84-1.6,1.69-5.92,1.69-5.92,3.38.92,1.89,4.46.93,6.19,1.21.31,2.54.27,5.74-.62,5-1.57,11.7-.35,14.43,1.39Zm-17.65-13.52c-9.07-5.69-17.67-6.82-28.12-6.82A18.16,18.16,0,0,1,71.57,114l-.08-85.4c11.36,6.08,36.33,2,47.23-3.68,11,5.74,35.72,9.67,47.24,3.68l-.1,85.4c0,10.14-9.09,18.44-19.78,18.44C135.7,132.47,127.16,133.66,118.15,139.29ZM179.83,134c-1.88,2.65-5.9,3.25-9.56,1.2,1.45,2.25,4.28,3,5.58,3.5,0,0-2.06,3.53-6.19-1-1.89,2.73-4.94,3.49-7.56,5.5a6.94,6.94,0,0,1,2.39-.19,7.78,7.78,0,0,1,5.41,2.43,6.64,6.64,0,0,1-5.22,1.92,8.52,8.52,0,0,1-4.78-1.89,13.25,13.25,0,0,0-2.07,5l-3.79.17c.72-3.12,4.33-8.52,9-10.78,3.07-1.54,4.08-2.33,4.68-3.4-2-.57-5.75-2.07-4.13-4.95,0,0,3.24,3.14,5.74,3-3.31-2.31-4.58-6.27-2.66-8.95s6.31-3.13,9.92-.87S181.64,131.25,179.83,134Zm1.8-9.4c-.9-1.56-3.06-.86-3.61,0-.18.36-2.17-.86-2-1.21a2.27,2.27,0,0,0-1.43-3.31l.17-.52s2.33,0,2.89,1.56c0,0,2-2.07,2.52-1.73.38.35-.73,3-.73,3,1.8-.35,2.72,1.92,2.72,1.92Zm2.74-28.7a7.24,7.24,0,0,1-5.13,1.92c.88,3.94.3,8.28-.83,10.42L175.55,106c4.31-8.63-1.72-11.69-1.35-17.11-6.15,1.3-5.5-2.72-5.5-2.72,1.32.31,4,1.38,6.56.31-4.09-.36-7.11-3.22-6.94-6.4.38-3.31,4.15-5.74,8.5-5.58,4.31.36,7.55,3.32,7.38,6.62-.34,3.17-3.84,5.53-7.93,5.43,1.94,1.59,6.66.83,6.66.83-.54,3.37-4.48,2.4-6.45,1.68-.17,1.18.13,2.37,1.59,5.46a13.49,13.49,0,0,1,.72,1.65,5.32,5.32,0,0,1,1.81-3,7,7,0,0,1,5.58-1.93A5.62,5.62,0,0,1,184.37,95.93Z"/><path class="cls-2" d="M92.19,108.09c-.25-.2-.5-.4-.77-.59,2.16-.77,4.93-2.34,3.41-5.15,0,0-3.46,3.64-6.12,3.41,3.7-2.47,5.15-6.63,3.23-9.67s-6.84-3.66-10.81-1.21-5.6,7-3.62,10.08,6.26,3.61,10.26,1.38c-1.62,2.42-4.78,3.19-6.1,3.66,0,0,2.21,4.29,7.15-1.4.28.2.53.4.79.6a3.66,3.66,0,0,1,.66-.41A7.75,7.75,0,0,1,92.19,108.09ZM88,105.48c-1.62,1-4.15.35-6.31-2.77-2-3.14-2-6.62-.36-7.48S86,95.92,88,99.05C90.14,102,89.61,104.62,88,105.48Z"/><path class="cls-2" d="M95,114c.37.69,3.08.16.55,1.9a3.25,3.25,0,0,1-.56.28c1.41,3.84.91,7.41,1.34,9.47l4.14.17c-.37-1.81-.5-7.63-3.79-12.89a3.09,3.09,0,0,1-1.49.72S94.6,113.48,95,114Z"/><path class="cls-2" d="M79.5,95.05c.36.51,2.35-.7,2.17-1.22-.54-.87-.18-3.3,1.63-3.48v-.69s-2.72,0-3.26,1.73c0,0-2.16-2.26-2.7-2.08-.54.35.54,3.3.54,3.3-1.81-.34-2.7,2.09-2.7,2.09l.35.35C76.61,93.49,79,94.18,79.5,95.05Z"/><path class="cls-2" d="M141.49,114c.17-.53-.19-.35-.19-.35a3.13,3.13,0,0,1-1.39-.69c-3.26,5.25-3.39,11-3.79,12.86l4.15-.17c.43-2-.07-5.59,1.31-9.4a3.71,3.71,0,0,1-.64-.35C138.41,114.17,141.12,114.7,141.49,114Z"/><path class="cls-2" d="M155.43,94.88c-4-2.45-8.83-1.92-10.81,1.21s-.48,7.2,3.24,9.68c-2.69.22-6.14-3.42-6.14-3.42-1.52,2.81,1.25,4.38,3.4,5.15-.3.2-.57.42-.85.64a8.22,8.22,0,0,1,1.72.65,4.37,4.37,0,0,1,.84.51c.3-.23.58-.47.91-.7,4.92,5.69,7.14,1.4,7.14,1.4-1.32-.47-4.46-1.24-6.09-3.66,4,2.23,8.35,1.6,10.25-1.38S159.41,97.31,155.43,94.88Zm-.55,7.83c-2.15,3.12-4.7,3.82-6.3,2.77-1.64-.86-2.16-3.47,0-6.43,2-3.13,5-4.7,6.66-3.82S156.86,99.57,154.88,102.71Z"/><path class="cls-2" d="M99.52,119.74a7,7,0,0,0,5.42-2.61,7.46,7.46,0,0,0,2-5.91,8,8,0,0,0-5.41,2.44A8.58,8.58,0,0,0,99.52,119.74Z"/><path class="cls-2" d="M158.68,92.61s1.09-3,.53-3.3c-.53-.18-2.69,2.08-2.69,2.08-.55-1.73-3.27-1.73-3.27-1.73v.69c1.82.18,2.18,2.61,1.63,3.48-.17.52,1.81,1.73,2.18,1.22.53-.87,2.88-1.56,4,0l.36-.36S160.5,92.27,158.68,92.61Z"/><path class="cls-2" d="M135.05,113.66a8.09,8.09,0,0,0-5.41-2.44,7.34,7.34,0,0,0,2,5.91,7,7,0,0,0,5.4,2.61A8.54,8.54,0,0,0,135.05,113.66Z"/><polygon class="cls-2" points="122.19 39.57 125.8 34 120.21 36.1 118.21 31.06 116.05 36.1 110.28 34 114.07 39.57 122.19 39.57"/><path class="cls-2" d="M144.27,108.14c-2.05-.51-2.78.48-2.78.48-.36-.13-4.88-5-8.23-8.47l3-.58c-2.18-5-8-6.1-12-9.13-3-2.29.37-3.28,1.16-2.52,7.41,6.26,14.08,1.92,14.08,1.92-5.24-1.76-7.76-7.66-7.76-7.66,10.83,6.26,19.11-.86,19.11-.86-7.2,1.21-12.8-5.57-12.8-5.57A21.66,21.66,0,0,0,157,70.88c-4.14.34-14.4-4-14.4-4,16.4-.52,17.84-12.19,18-12.19-4.52,3-16.59,1.57-16.59,1.57,17.13-6.08,15.87-20.16,15.87-20.16-3.63,5.38-20.19,10.6-20.19,10.6-4.51,1.38-8.12,5.4-8.12,10.08a4,4,0,0,1-4,3.49c-4.41,0-4.35-6.38-4.35-9.4,0-4.52-.17-9.72-3.42-9.72h-6.48c-1.18,0-3.2-.14-4,.86-1.68,2-1.42,7.11-.67,6.07a7.76,7.76,0,0,1,4.15,0c2.09.61.55,7.11.55,8.54a3.92,3.92,0,0,1-4,3.65,4,4,0,0,1-4-3.49c0-4.68-3.6-8.7-7.93-10.08,0,0-17-5.22-20.55-10.6,0,0-1.27,14.25,16,20.52,0,0-12.25,1-16.77-1.93.18,0,2.34,12.19,18.75,12.71,0,0-10.81,3.65-14.78,3.13,0,0,7.75,8.87,19.3,6.26,0,0-6.32,5.74-13.54,4.53,0,0,8.13,7.28,19.13,1.21,0,0-2.35,5.55-7.58,7.31,0,0,6.67,4.34,14.24-1.92,1-1.08,4,.16,1,2.52-4.13,3.15-10,3.91-12.51,9.13l3,.59c-3.41,3.46-8,8.33-8.45,8.46,0,0-.67-.93-2.58-.53a7.75,7.75,0,0,0-1.92.7,3.66,3.66,0,0,0-.66.41c-1.34,1-1.88,2.83-.78,3.59,0,0-.54,2.79,2.7,2.6a2.49,2.49,0,0,0,3.41.8,3.25,3.25,0,0,0,.56-.28c2.53-1.74-.18-1.21-.55-1.9-.35-.53.19-.35.19-.35a3.09,3.09,0,0,0,1.49-.72,1.35,1.35,0,0,0,.3-2.06c-.11-.22,5.88-3.95,10.27-6.64l.56,2.81a12,12,0,0,1,6.27-4.17,17.32,17.32,0,0,0-3.38,13.92s.71-2.27,4.33-2.63c0,0-5,6.1,3.06,17.93,8.11-11.83,3.43-17.93,3.43-17.93,3.6.36,4.5,2.63,4.5,2.63a17.63,17.63,0,0,0-3.6-14,11.59,11.59,0,0,1,6.31,4.28l.57-2.88c4.35,2.7,10.36,6.49,10.26,6.71-.67.74-.26,1.54.4,2.09a3.13,3.13,0,0,0,1.39.69s.36-.18.19.35c-.37.69-3.08.16-.55,1.9a3.71,3.71,0,0,0,.64.35,2.61,2.61,0,0,0,3.33-.87c3.24.19,2.71-2.6,2.71-2.6,1.06-.74.57-2.45-.79-3.49a4.37,4.37,0,0,0-.84-.51A8.22,8.22,0,0,0,144.27,108.14ZM115.69,46.35a1.64,1.64,0,0,1-1.79-1.56,1.67,1.67,0,0,1,1.79-1.74,1.63,1.63,0,0,1,1.62,1.74A1.58,1.58,0,0,1,115.69,46.35Z"/></g></g></svg>