<svg xmlns="http://www.w3.org/2000/svg" viewBox="0 0 373 251.09"><defs><style>.cls-1{fill:#fff;}.cls-2{fill:#86a1d9;}.cls-3{fill:#003383;}.cls-4{fill:#e4b143;}.cls-5{fill:#c53f34;}</style></defs><title>logo-unitet</title><g id="Capa_2" data-name="Capa 2"><g id="Capa_1-2" data-name="Capa 1"><rect class="cls-1" x="0.15" y="0.45" width="372.85" height="250.64"/><g id="_Grupo_" data-name="&lt;Grupo&gt;"><polygon id="_Trazado_" data-name="&lt;Trazado&gt;" class="cls-1" points="372.63 251.09 0 249.99 0.37 0 373 1.09 372.63 251.09"/><rect id="_Trazado_2" data-name="&lt;Trazado&gt;" class="cls-2" x="215.5" y="20.74" width="142" height="137.16" transform="matrix(0, -1, 1, 0, 196.58, 375.64)"/><rect id="_Trazado_3" data-name="&lt;Trazado&gt;" class="cls-3" x="46.93" y="-11.02" width="142" height="199.99" transform="translate(28.7 206.71) rotate(-89.88)"/><path id="_Trazado_4" data-name="&lt;Trazado&gt;" class="cls-1" d="M343.15,88.51a56.65,56.65,0,1,1-56.52-56.75,56.66,56.66,0,0,1,56.52,56.75"/><path id="_Trazado_5" data-name="&lt;Trazado&gt;" class="cls-4" d="M257.09,99.39c.58-.27,1.91-.85,2.5-1.14s.59-.64.38-1.19a27.57,27.57,0,0,1-1.31-8.6A27.84,27.84,0,1,1,312,99.66a.67.67,0,0,0,.25.93c.45.19,2.14,1,2.63,1.15a.75.75,0,0,0,1.08-.44,32.12,32.12,0,1,0-59.89-2.46c.15.5.42.82,1,.55"/><path id="_Trazado_6" data-name="&lt;Trazado&gt;" class="cls-4" d="M248.93,103.16c.65-.34,3-1.37,3.56-1.68a.71.71,0,0,0,.38-1,35.3,35.3,0,0,1-2.05-12,35.67,35.67,0,1,1,71.34.15,35.17,35.17,0,0,1-3,14.18.67.67,0,0,0,.35,1c.53.25,3.1,1.4,3.57,1.61s.82.12,1.08-.47a40.62,40.62,0,0,0,3.41-16.3,41.1,41.1,0,1,0-79.67,14.06c.1.27.31.81,1,.49"/><path id="_Trazado_7" data-name="&lt;Trazado&gt;" class="cls-4" d="M237.82,108.25c.79-.4,5.63-2.63,6.46-3s.5-1,.38-1.39a44.14,44.14,0,0,1-2.73-15.43,44.57,44.57,0,1,1,85.51,17.71.9.9,0,0,0,.51,1.34c.75.35,5.46,2.43,6.1,2.69s1.12.24,1.55-.7a53.37,53.37,0,1,0-98.93-1.86c.12.34.36,1,1.15.64"/><path id="_Trazado_8" data-name="&lt;Trazado&gt;" class="cls-5" d="M286.56,76.92a5.72,5.72,0,1,0-5.71-5.71,5.74,5.74,0,0,0,5.71,5.71"/><path id="_Trazado_9" data-name="&lt;Trazado&gt;" class="cls-5" d="M288.59,106.89a2,2,0,0,0,2-2l0-12.53a8.65,8.65,0,0,1,2.31-4.82l11.83-11.78a2,2,0,0,0,0-2.88l-2.15-2.15a2,2,0,0,0-2.87,0L289.07,81.35a3.09,3.09,0,0,1-2.52,1.12A3,3,0,0,1,284,81.34l-10.65-10.7a2,2,0,0,0-2.86,0l-2.17,2.14a2.06,2.06,0,0,0,0,2.88l11.81,11.83a8.6,8.6,0,0,1,2.26,4.83l0,12.54a2,2,0,0,0,2,2Z"/><path id="_Trazado_10" data-name="&lt;Trazado&gt;" class="cls-3" d="M325.82,111.4c-2,.74-5.74,4.42-7.42,5.92l-.46.07a62.06,62.06,0,0,0,3.85-5c2-3.38-1.79-6.57-6-4.16-1.61.92-4.3,3.73-5.6,4.75l-.4.11a52.41,52.41,0,0,0,3.59-4.71c1.86-2.74-2-5.34-5.33-3.32a63.09,63.09,0,0,0-6.28,4.87l-.35.08c.53-.51,1.87-2.07,2.37-2.62,2-2.2-.84-4.76-3.82-3.22s-7,5.54-11.46,8.41c2.08,1.13,5.74,1.31,11.55,3.79s7.69,8.3,3.87,12.86c-3.52,4.23-8.87,2.79-13.47,1.35-5.34-1.69-7.23-3.41-13.66-5.66-4.2-1.48-5.92-1.46-5.83-2.66.06-1.38,3.69-.56,7.1.69,9.42,3.45,21.94,11.24,25,2.86,2.44-6.58-8.42-9.47-12.59-10.27-5.79-1.13-9.77-5.38-14.79-8.09-7.58-4.11-13.41-4.22-17.74-3.45-4.66.82-11.31,4.61-15.33,7-2.8,1.64-2.6,4.17.12,8a53.3,53.3,0,0,0,89-2.37c2.1-3.37-1.17-6.94-6-5.25"/><path id="_Trazado_11" data-name="&lt;Trazado&gt;" class="cls-1" d="M172.74,147.83c0,1.53,5.49,3.21,8.35,3.22a9.21,9.21,0,0,0,9-6.15c2.18-5.35,11.28-36.25,11.28-36.25l1,0c2-.35,2.77-1.56,2.77-4.66,0-1.11-.15-1.21-1.06-1.21l-7.4,0c-.72,0-.78.13-1,.87l-6.22,23.81-6.3-23.84c-.2-.74-.29-.85-1-.87h-7.44c-.9,0-1.05.09-1.06,1.21,0,3.1.74,4.32,2.78,4.67l1.05,0s5.87,20.76,9,29.46l-.46,1.69c-1,3.25-2.74,4.74-5.47,4.74-.65,0-4.3-.57-4.3-.57-2.06-.16-2.62.69-2.85,1.44a13.23,13.23,0,0,0-.62,2.47"/><path id="_Trazado_12" data-name="&lt;Trazado&gt;" class="cls-1" d="M147.6,91.05l-8.84,0c-.78,0-.79.08-.91.87l-5,30.86-6-30.73c-.15-.83-.27-1-1.22-1h-4c-1.48,0-1.55.23-1.72,1.08l-6.35,30.65-4.65-30.88c-.11-.79-.13-.87-.89-.87l-9.1,0c-.94,0-1.09.09-1.09,1.26,0,3.39.82,4.64,3.22,4.91l.92.07,6.84,38c.23.89.32,1.07,1.14,1.07h6c1,0,1,0,1.17-1.06l6-29.53L128,135.25c.21,1,.2,1,1.18,1h6.11c.8,0,.92-.18,1.14-1.06l7.92-38,.87,0c2.42-.27,3.23-1.52,3.24-4.91,0-1.08-.15-1.19-.89-1.25"/><path id="_Trazado_compuesto_" data-name="&lt;Trazado compuesto&gt;" class="cls-1" d="M170.55,130.42a21,21,0,0,1-.69-6l0-12c0-7.53-3.24-10.88-10.68-10.9-5.17,0-10.65,2.21-10.65,3.61a13.23,13.23,0,0,0,.57,2.29c.16.43.5,1.46,2.69,1.31.88-.07,4.69-.79,6.28-.79,4.21,0,4.63,2.46,4.62,5.35v2.38c-5.24,0-16.55,0-16.58,11.42,0,6.42,3.53,10.41,9.28,10.42a9.77,9.77,0,0,0,7.84-3.82l.49-.55.17.87c.26,1.39.51,2.35,1.58,2.35l7.63,0c.94,0,1.07-.07,1.07-1.17,0-3.41-.8-4.61-3.63-4.79m-7.87-1.6c-.83.9-2.57,2.75-5,2.75s-4.39-2.15-4.38-4.94c0-6.25,7.38-5.86,9.39-5.7Z"/><path id="_Trazado_13" data-name="&lt;Trazado&gt;" class="cls-1" d="M117.11,74.29l-.81,0,.06-26.95c0-.66,0-.74-.67-.74l-10.66,0c-.93,0-1,.07-1,1.18,0,3.67,1,4.79,4.13,4.79h.76l0,21.72-.8,0c-3.18,0-4.14,1.12-4.15,4.78,0,1.1.15,1.19,1.06,1.19l15.24,0c.89,0,1.06-.08,1.06-1.18,0-3.63-1-4.8-4.13-4.8"/><path id="_Trazado_14" data-name="&lt;Trazado&gt;" class="cls-1" d="M112.57,33.79A4.65,4.65,0,0,0,108,38.63a4.5,4.5,0,1,0,9,0,4.66,4.66,0,0,0-4.43-4.86"/><path id="_Trazado_15" data-name="&lt;Trazado&gt;" class="cls-1" d="M62.13,42.21h.2c3.24,0,4.26-1.18,4.27-4.93,0-1.11-.14-1.22-1.08-1.22L50.85,36c-.84,0-1,.14-1.05.64l0,.58c0,3.73,1,4.92,4.18,4.94h.21l0,22.11c0,4.25,0,10-6.81,10-6.29,0-6.79-4.54-6.78-10l0-22.11h.22c3.15,0,4.19-1.2,4.2-4.93l-.05-.7c-.09-.4-.22-.52-1-.53L29.26,36c-.93,0-1.09.11-1.09,1.22,0,3.79,1,4.94,4.25,4.95h.2l0,22.12c0,11.91,4.38,17,14.71,17s14.78-5.07,14.8-17Z"/><path id="_Trazado_16" data-name="&lt;Trazado&gt;" class="cls-1" d="M96.06,74.24l0-18.18c0-7.39-2.4-10.71-7.82-10.72-4.86,0-7.54,2.82-9.63,5-.18-.78-.34-1.4-.34-1.4-.32-1.48-.59-2.4-1.55-2.4l-8.23,0c-.92,0-1,.08-1,1.19,0,3.46.86,4.7,3.78,4.78a19.16,19.16,0,0,1,.67,6.12l0,15.62c-3.1,0-4,1.15-4.06,4.79,0,1.1.16,1.18,1.07,1.19l9.8,0c.6,0,.64-.09.64-.73l0-24.38c.9-.94,3-3,5.55-3,3.72,0,3.71,4.25,3.71,6.07l-.05,21.3c0,.64,0,.73.66.73l9.75,0c.9,0,1.07-.09,1.07-1.19,0-3.58-1-4.75-4-4.8"/><path id="_Trazado_17" data-name="&lt;Trazado&gt;" class="cls-1" d="M135.41,81.49c4.34,0,7.88-1.12,7.88-2.06,0-.16-.25-1.45-.4-2.08-.6-2.54-.84-3.47-5.46-2.9A1.69,1.69,0,0,1,136,74c-.89-.9-.89-2.9-.88-4.49l0-16.94h4.13c3.18,0,4.13-1.11,4.14-4.77,0-1.12-.13-1.19-1.05-1.19l-7.21,0,0-9.45c0-.91-.08-1-.43-1s-1.85.2-2.62.32c-2.13.34-4.42,2-4.43,5.81v4.28h-4.26c-.9,0-1.06.07-1.06,1.18,0,3.67,1,4.78,4.11,4.79h1.2l0,15.79c0,6.44,0,13.11,7.78,13.13"/><path id="_Trazado_compuesto_2" data-name="&lt;Trazado compuesto&gt;" class="cls-1" d="M171.66,64.15c0-12.35-4.09-18.64-12.17-18.66s-13.39,7.34-13.41,18.33c0,14.6,7.4,17.71,13.66,17.72,5,0,10.89-2.35,10.9-3.84a12.56,12.56,0,0,0-.59-2.39c-.22-.74-.67-1.5-2.79-1.4-1.64.07-4.27.83-6.71.83-4.66,0-7-2.93-7-9.13l16.94,0c1,0,1.21-.25,1.21-1.49M153.8,59.67l0-.59c.21-2.29.7-7.63,5.47-7.62S164,56.91,164,59.69Z"/><path id="_Trazado_compuesto_3" data-name="&lt;Trazado compuesto&gt;" class="cls-1" d="M201.73,74.46a18,18,0,0,1-.66-6l.07-33.59c0-.62,0-.71-.67-.71l-9.82,0c-.91,0-1.08.08-1.09,1.15,0,3.55.95,4.74,3.9,4.8h.2l0,7.76-.61-.42a9.1,9.1,0,0,0-5.92-1.87c-7.66,0-11.74,6.68-11.77,19.38,0,10.72,3.67,16.65,10.4,16.66a12.84,12.84,0,0,0,8.84-3.89l.43,1.46c.31,1.14.36,1.27,1.28,1.27l8.64,0c.89,0,1.06-.09,1.06-1.18,0-3.61-.94-4.8-4.26-4.81m-13.5.69c-4.54,0-5.42-4.17-5.41-11.39,0-7.64,1-11.76,5.84-11.75a8.22,8.22,0,0,1,5,1.48l0,19.11a6.35,6.35,0,0,1-5.36,2.55"/><path id="_Trazado_compuesto_4" data-name="&lt;Trazado compuesto&gt;" class="cls-1" d="M334.87,147.54a4.08,4.08,0,1,1,4.05,4.08,4,4,0,0,1-4.05-4.08m7.35,0a3.29,3.29,0,1,0-3.3,3.4,3.28,3.28,0,0,0,3.3-3.4M338.11,150h-.7v-4.75h1.78c1.09,0,1.64.44,1.64,1.34a1.21,1.21,0,0,1-1.16,1.29L341,150h-.85l-1.25-2.09h-.73Zm0-2.69h.78c.88,0,1.21-.11,1.21-.74s-.29-.7-1-.7h-1Z"/><path class="cls-3" d="M17.5,227.73l0-22.14h6.81a10.45,10.45,0,0,1,5.23,1.33,9.18,9.18,0,0,1,3.58,3.75,11.43,11.43,0,0,1,1.28,5.51v1a11.52,11.52,0,0,1-1.28,5.49,9.13,9.13,0,0,1-3.59,3.72,10.43,10.43,0,0,1-5.22,1.32Zm4.6-18.44,0,14.78h2.21a5,5,0,0,0,4.09-1.74,7.9,7.9,0,0,0,1.46-5v-1.17a8,8,0,0,0-1.39-5.12,4.93,4.93,0,0,0-4.09-1.75Z"/><path class="cls-3" d="M37.46,207.06a2.18,2.18,0,0,1,.66-1.63,2.54,2.54,0,0,1,1.81-.63,2.47,2.47,0,0,1,1.79.64,2.31,2.31,0,0,1,0,3.27,2.46,2.46,0,0,1-1.78.64,2.53,2.53,0,0,1-1.79-.65A2.14,2.14,0,0,1,37.46,207.06Zm4.62,20.72H37.67l0-16.45h4.41Z"/><path class="cls-3" d="M51.87,222.43,55,211.35h4.59L54,227.8h-4.2l-5.51-16.46h4.59Z"/><path class="cls-3" d="M61.45,207.11a2.15,2.15,0,0,1,.67-1.62,2.46,2.46,0,0,1,1.8-.64,2.5,2.5,0,0,1,1.79.64,2.32,2.32,0,0,1,0,3.27,2.79,2.79,0,0,1-3.57,0A2.11,2.11,0,0,1,61.45,207.11Zm4.63,20.72H61.67l0-16.45h4.41Z"/><path class="cls-3" d="M69,219.49a9.8,9.8,0,0,1,1.74-6.12,5.61,5.61,0,0,1,4.72-2.28,5.07,5.07,0,0,1,4,1.81v-8.4h4.41l0,23.36h-4l-.21-1.75a5.14,5.14,0,0,1-4.23,2,5.58,5.58,0,0,1-4.66-2.3A10.17,10.17,0,0,1,69,219.49Zm4.39.32a6.5,6.5,0,0,0,.8,3.56,2.62,2.62,0,0,0,2.34,1.24,2.93,2.93,0,0,0,2.88-1.72v-6.52a2.89,2.89,0,0,0-2.84-1.73Q73.43,214.64,73.42,219.81Z"/><path class="cls-3" d="M94.81,228.19A8.07,8.07,0,0,1,88.92,226,7.92,7.92,0,0,1,86.66,220v-.42a10,10,0,0,1,1-4.44,7,7,0,0,1,2.72-3,7.67,7.67,0,0,1,4-1.05,6.85,6.85,0,0,1,5.31,2.14,8.63,8.63,0,0,1,1.92,6v1.8l-10.48,0a4.06,4.06,0,0,0,1.29,2.59,3.86,3.86,0,0,0,2.71,1,4.77,4.77,0,0,0,4-1.83l2.15,2.42a6.58,6.58,0,0,1-2.68,2.18A8.63,8.63,0,0,1,94.81,228.19Zm-.47-13.52a2.77,2.77,0,0,0-2.13.89,4.54,4.54,0,0,0-1,2.53h6.11v-.35a3.27,3.27,0,0,0-.79-2.27A2.83,2.83,0,0,0,94.34,214.67Z"/><path class="cls-3" d="M108.15,211.47l.13,1.9a5.76,5.76,0,0,1,4.73-2.2,4.78,4.78,0,0,1,3.89,1.55,7.15,7.15,0,0,1,1.3,4.59l0,10.63h-4.4l0-10.55a2.83,2.83,0,0,0-.61-2,2.72,2.72,0,0,0-2-.64,3,3,0,0,0-2.78,1.58l0,11.63H104l0-16.45Z"/><path class="cls-3" d="M120.84,219.6a10,10,0,0,1,1.74-6.13,5.6,5.6,0,0,1,4.73-2.27,5.07,5.07,0,0,1,4,1.8l0-8.39h4.41l0,23.35h-4l-.21-1.75a5.2,5.2,0,0,1-4.23,2,5.58,5.58,0,0,1-4.66-2.3A10.31,10.31,0,0,1,120.84,219.6Zm4.39.32a6.61,6.61,0,0,0,.8,3.56,2.64,2.64,0,0,0,2.34,1.24,2.94,2.94,0,0,0,2.88-1.72v-6.52a2.89,2.89,0,0,0-2.84-1.73C126.3,214.74,125.24,216.47,125.23,219.92Z"/><path class="cls-3" d="M138.39,219.6a9.74,9.74,0,0,1,1-4.36,7,7,0,0,1,2.72-3,8,8,0,0,1,4.12-1,7.51,7.51,0,0,1,5.42,2,8.11,8.11,0,0,1,2.34,5.54l0,1.12a8.53,8.53,0,0,1-2.13,6.07,8.19,8.19,0,0,1-11.35,0,8.75,8.75,0,0,1-2.1-6.21Zm4.39.32a6.22,6.22,0,0,0,.87,3.59,3.17,3.17,0,0,0,5,0,6.78,6.78,0,0,0,.91-3.92,6.2,6.2,0,0,0-.89-3.57,3,3,0,0,0-2.52-1.27,2.87,2.87,0,0,0-2.5,1.26A6.78,6.78,0,0,0,142.78,219.92Z"/><path class="cls-3" d="M169.28,220.25V228H164.7l.05-22.13,8.64,0a9.94,9.94,0,0,1,4.38.92,6.74,6.74,0,0,1,2.91,2.59,7.26,7.26,0,0,1,1,3.83,6.37,6.37,0,0,1-2.24,5.13,9.26,9.26,0,0,1-6.17,1.86Zm0-3.7h4.08a4,4,0,0,0,2.76-.85,3.08,3.08,0,0,0,1-2.43,3.65,3.65,0,0,0-1-2.63,3.58,3.58,0,0,0-2.65-1H169.3Z"/><path class="cls-3" d="M183.83,219.7a9.68,9.68,0,0,1,1-4.36,6.79,6.79,0,0,1,2.72-3,7.8,7.8,0,0,1,4.11-1,7.43,7.43,0,0,1,5.43,2,8.17,8.17,0,0,1,2.34,5.53l0,1.13a8.63,8.63,0,0,1-2.13,6.07,8.18,8.18,0,0,1-11.35,0,8.76,8.76,0,0,1-2.11-6.2Zm4.4.32a6.16,6.16,0,0,0,.87,3.59,2.93,2.93,0,0,0,2.52,1.24,2.89,2.89,0,0,0,2.5-1.22,6.69,6.69,0,0,0,.9-3.92,6,6,0,0,0-.89-3.56,3.12,3.12,0,0,0-5,0A6.79,6.79,0,0,0,188.23,220Z"/><path class="cls-3" d="M211.38,215.8a12.18,12.18,0,0,0-1.58-.12c-1.67,0-2.76.55-3.28,1.68l0,10.76h-4.39l0-16.45h4.15l.12,2a4,4,0,0,1,3.67-2.25,4.37,4.37,0,0,1,1.37.2Z"/><path class="cls-3" d="M238.9,220.82a7.85,7.85,0,0,1-2.65,5.62,9.27,9.27,0,0,1-6.28,2,8.31,8.31,0,0,1-6.69-2.88q-2.43-2.86-2.42-7.87v-1.35a13.39,13.39,0,0,1,1.14-5.62,8.38,8.38,0,0,1,3.22-3.73,9.1,9.1,0,0,1,4.86-1.29,9,9,0,0,1,6.17,2.06,8.45,8.45,0,0,1,2.7,5.77h-4.56a4.65,4.65,0,0,0-1.19-3.11,4.42,4.42,0,0,0-3.12-1,3.87,3.87,0,0,0-3.42,1.63,9.19,9.19,0,0,0-1.18,5.07v1.67a9.89,9.89,0,0,0,1.08,5.25,3.8,3.8,0,0,0,3.42,1.66,4.54,4.54,0,0,0,3.16-1,4.33,4.33,0,0,0,1.2-3Z"/><path class="cls-3" d="M240.93,219.82a9.68,9.68,0,0,1,.95-4.36,6.79,6.79,0,0,1,2.72-3,7.9,7.9,0,0,1,4.11-1.05,7.48,7.48,0,0,1,5.43,2.06,8.13,8.13,0,0,1,2.34,5.53l0,1.13a8.63,8.63,0,0,1-2.13,6.07,8.2,8.2,0,0,1-11.35,0,8.72,8.72,0,0,1-2.1-6.21Zm4.39.32a6.16,6.16,0,0,0,.87,3.59,2.93,2.93,0,0,0,2.52,1.24,2.89,2.89,0,0,0,2.5-1.22,6.75,6.75,0,0,0,.91-3.92,6.06,6.06,0,0,0-.9-3.56,3.12,3.12,0,0,0-5,0A6.79,6.79,0,0,0,245.32,220.14Z"/><path class="cls-3" d="M263.84,228.24h-4.41l0-23.35h4.41Z"/><path class="cls-3" d="M266.79,219.87a9.74,9.74,0,0,1,.95-4.36,6.9,6.9,0,0,1,2.72-3,7.91,7.91,0,0,1,4.12-1,7.51,7.51,0,0,1,5.43,2.05,8.13,8.13,0,0,1,2.33,5.54l0,1.12a8.57,8.57,0,0,1-2.12,6.07,8.19,8.19,0,0,1-11.35,0,8.71,8.71,0,0,1-2.11-6.21Zm4.39.32a6.22,6.22,0,0,0,.87,3.59,3.17,3.17,0,0,0,5,0,6.72,6.72,0,0,0,.91-3.92,6.1,6.1,0,0,0-.89-3.57,2.93,2.93,0,0,0-2.52-1.27,2.89,2.89,0,0,0-2.5,1.25A6.84,6.84,0,0,0,271.18,220.19Z"/><path class="cls-3" d="M289.22,211.84l.13,1.84a5.81,5.81,0,0,1,4.73-2.13,4.38,4.38,0,0,1,4.36,2.52,5.67,5.67,0,0,1,4.95-2.5,4.87,4.87,0,0,1,4,1.57,7.11,7.11,0,0,1,1.3,4.69l0,10.5h-4.41l0-10.52a3.12,3.12,0,0,0-.55-2.05,2.42,2.42,0,0,0-1.93-.65A2.74,2.74,0,0,0,299,217v11.33h-4.4l0-10.5a3.1,3.1,0,0,0-.55-2.08,2.45,2.45,0,0,0-1.92-.64,2.84,2.84,0,0,0-2.71,1.55l0,11.66h-4.4l0-16.45Z"/><path class="cls-3" d="M326.86,220.3a10,10,0,0,1-1.7,6.16,5.59,5.59,0,0,1-4.72,2.2,5.12,5.12,0,0,1-4.27-2.06l-.2,1.75h-4l.05-23.35h4.39l0,8.38a5,5,0,0,1,4-1.77,5.62,5.62,0,0,1,4.72,2.22,10,10,0,0,1,1.7,6.23Zm-4.4-.34a6.51,6.51,0,0,0-.78-3.66,2.65,2.65,0,0,0-2.35-1.15,2.89,2.89,0,0,0-2.9,1.71v6.51a2.94,2.94,0,0,0,2.92,1.75,2.72,2.72,0,0,0,2.8-2.1A11,11,0,0,0,322.46,220Z"/><path class="cls-3" d="M329.56,207.67a2.18,2.18,0,0,1,.66-1.63,2.54,2.54,0,0,1,1.81-.63,2.5,2.5,0,0,1,1.79.64,2.15,2.15,0,0,1,.67,1.63,2.18,2.18,0,0,1-.68,1.64A2.5,2.5,0,0,1,332,210a2.53,2.53,0,0,1-1.79-.65A2.14,2.14,0,0,1,329.56,207.67Zm4.62,20.72h-4.41l0-16.45h4.41Z"/><path class="cls-3" d="M347.34,228.42a4.71,4.71,0,0,1-.44-1.48,5.33,5.33,0,0,1-4.16,1.77,5.84,5.84,0,0,1-4-1.4,4.52,4.52,0,0,1-1.58-3.54,4.65,4.65,0,0,1,1.95-4,9.58,9.58,0,0,1,5.6-1.4h2v-1a2.74,2.74,0,0,0-.58-1.82,2.3,2.3,0,0,0-1.85-.69,2.59,2.59,0,0,0-1.74.53,1.81,1.81,0,0,0-.64,1.46h-4.39a4.46,4.46,0,0,1,.88-2.65,5.93,5.93,0,0,1,2.5-1.9,9,9,0,0,1,3.62-.68,7.13,7.13,0,0,1,4.83,1.54,5.3,5.3,0,0,1,1.77,4.29v7.13a7.85,7.85,0,0,0,.65,3.55v.26Zm-3.63-3.07a3.73,3.73,0,0,0,1.79-.43,2.8,2.8,0,0,0,1.22-1.16v-2.82h-1.64c-2.2,0-3.38.76-3.52,2.27l0,.26a1.76,1.76,0,0,0,.58,1.36A2.25,2.25,0,0,0,343.71,225.35Z"/></g></g></g></svg>