<svg xmlns="http://www.w3.org/2000/svg" viewBox="0 0 622.16 307.91"><defs><style>.cls-1{fill:#f6b73e;}.cls-2{fill:#fff;}.cls-3{fill:#005298;}</style></defs><title>logo-laboratorio_1</title><g id="Capa_2" data-name="Capa 2"><g id="Capa_1-2" data-name="Capa 1"><path class="cls-1" d="M601.78,195.71c.15,1,.33,2.17.47,3.43.91,7.82.88,20.21-9.57,34.87a25.69,25.69,0,0,1-17.85,8.77,13.78,13.78,0,0,1-9.4-2.63c-4.84-3.92-7.3-13.32-7.37-20s1.88-11.76,4.79-17.53a16.39,16.39,0,0,1,5.69-6.6,14.26,14.26,0,0,1,6.52-2.05c2.37-.21,15.67.14,15.87,19.31a12.69,12.69,0,0,1-.57,4.52c-.49,1.38-3.06,9.11-12.05,10-3.81.59-11.82-4.29-8.92-13.65a15.48,15.48,0,0,1,5-6.22c1.41-.92,3.66-1.21,4.9,0,.93.88,1.05,2.42,1,3.79a6.22,6.22,0,0,1-1.11,4.05c-.9,1-2.79.92-3.18-.47a3.14,3.14,0,0,1-.07-.41c-.2-.2-.43-.3-.59.09a6.14,6.14,0,0,0,0,1.05c.2,2.47,1.92,4.86,4.12,5a4.86,4.86,0,0,0,3.25-1.2c3.9-3.08,4.49-10.17,1.32-14.18-2.49-3.12-11.76-5.57-16.6,2.3-1.36,2.2-5.15,9.46-.93,19.6,4.14,8.07,13.95,13.56,25.29-2.61,3.58-5.53,4.62-12.78,3.77-19.55-1-8.05-4.68-15.71-10.33-20.76S572,177.28,565,178.92c-3.57.84-28.28,10.82-18.25,55.8,12.62,33.76,36.24,21,44.21,16.75C612,238.05,616,209.64,613.68,193c-.36-2.52-12.23.53-11.9,2.67"/><path class="cls-2" d="M621.5,197.07l0-.26c-.07-1.51-.17-3-.28-4.52a4.15,4.15,0,0,0-1.45-3.78,3.14,3.14,0,0,0-3.68-.1,5.09,5.09,0,0,0-1.91,4.84l0,.33c1.88,20.72-4,40.37-16.46,55.23a28.71,28.71,0,0,1-7,5.95l-1.29.69a55.5,55.5,0,0,1-5.13,2.55,17.54,17.54,0,0,1-8.4,1.07,45.82,45.82,0,0,1-6.24-1l-.23-.05a32,32,0,0,1-5.43-1.75,24.58,24.58,0,0,1-8.25-6.06c-3.75-4-6.74-9.27-9.13-16.2A53.77,53.77,0,0,1,544,223.24a73.89,73.89,0,0,1-.56-13.46,46.21,46.21,0,0,1,1.37-9.7c.06-.19.13-.45.26-.83a45.62,45.62,0,0,1,3.41-8.19,32,32,0,0,1,12.24-12.79l1.14-.72a16.93,16.93,0,0,1,6.43-2.31,31.84,31.84,0,0,1,6.42-.24,16.22,16.22,0,0,1,4.08.8,20.33,20.33,0,0,1,6.87,4.1c3.56,3,6.62,7.44,9.37,13.58a22.16,22.16,0,0,1,1.91,8.05l0,.88a54.11,54.11,0,0,1,.07,5.67,29.47,29.47,0,0,1-.9,5.46,47.25,47.25,0,0,1-2.21,6.56c-1.94,4.49-4.18,7.64-6.83,9.66a21.84,21.84,0,0,1-4.26,2.7,10.7,10.7,0,0,1-2.82.67l-1.07.17a7.85,7.85,0,0,1-4.13-.59,9.54,9.54,0,0,1-3.88-2.73,20.07,20.07,0,0,1-4.25-7.23,18.66,18.66,0,0,1-.51-10.57c1.23-5,3.51-8.43,7-10.35,1.68-.93,3.48-1.78,5.25-1.58,3.25.36,5.35,2.28,6.62,6a13,13,0,0,1,.5,6.47,10.06,10.06,0,0,1-1.46,3.65,4.84,4.84,0,0,1-3.8,2.59c-.35,0-1.39.14-2.91-2.23a7.21,7.21,0,0,1-1.25-4.33,4.74,4.74,0,0,1,1.61-3.5c.16-.14.33-.27.52-.41l.44-.33a2.38,2.38,0,0,0-.66-4.07,4.49,4.49,0,0,0-4.25,1.33,11.64,11.64,0,0,0-3.3,10.8c1.27,6.86,5,9.34,7.9,10.21a7.58,7.58,0,0,0,6.35-1.14c4.18-2.63,6.77-7.05,7.72-13.13A19.41,19.41,0,0,0,591,201.25c-1.2-2.73-3-6.12-5.83-8.14a13,13,0,0,0-5.86-2.25,14.11,14.11,0,0,0-7.93,1.23,21.16,21.16,0,0,0-7,5.87,27.75,27.75,0,0,0-5.83,13.13,29.11,29.11,0,0,0,0,10.69c1.09,5.87,3,10.27,5.83,13.49a19.29,19.29,0,0,0,7.72,5.62,15.46,15.46,0,0,0,8,.69,20,20,0,0,0,9.15-4.14,31.41,31.41,0,0,0,9.11-10.9,50.57,50.57,0,0,0,3-7,49.35,49.35,0,0,0,1.75-7.73,46.45,46.45,0,0,0,.66-7.83,51.08,51.08,0,0,0-.82-8.44,46.75,46.75,0,0,0-2-7.24,39.48,39.48,0,0,0-1.7-3.92c-.26-.52-.51-1-.75-1.57-.16-.36-4.79-7.1-5.87-7.91-2.81-2.12-5.14-3.83-7.33-5.37a17.5,17.5,0,0,0-7.14-2.89,29.39,29.39,0,0,0-6.6-.39,24.9,24.9,0,0,0-6.25,1,29.14,29.14,0,0,0-6.66,2.92,41.66,41.66,0,0,0-7.15,5.32,73.92,73.92,0,0,0-7.18,8.08,33.1,33.1,0,0,0-3.84,6.48,52.86,52.86,0,0,0-4.73,18.83c0,1.09,0,2.18,0,3.28,0,2.59-.05,5.29.12,8a70.2,70.2,0,0,0,2,12.68,68.23,68.23,0,0,0,4.46,12.65,41,41,0,0,0,6.34,9.79A74.94,74.94,0,0,0,555,261.6a26.23,26.23,0,0,0,4.54,3.13,33.11,33.11,0,0,0,5.66,2.76,41.66,41.66,0,0,0,7.44,1.84,25,25,0,0,0,3.68.26,24.22,24.22,0,0,0,2.82-.15A25.32,25.32,0,0,0,588,267l1.25-.64a49.75,49.75,0,0,0,6.44-3.63c26.49-20.56,26.44-55.43,25.79-65.62"/><path class="cls-2" d="M456.9,166.31c-1.19-.08-2.87,1-4,1.89a3.18,3.18,0,0,0-1.26,2.38c-.35,6.18-1.9,31.74-4.72,51.13-1.28,9-2.24,16.07-2.87,21-.57-3.56-1.65-10.53-3.2-20.61-8.56-55.39-11.3-55.39-12.47-55.39-1.35,0-2.65,1.22-3.39,2.08a2.11,2.11,0,0,0-.49,1.75c.78,4.38,4.26,24,7.85,46.22,3.45,21.37,7.83,43.42,9.08,49.61a3.91,3.91,0,0,0,3.66,3.24h0c.56,0,1.6,0,3.7-11.76.64-3.63,3.23-21.3,3.94-26.78s6.78-59,7-61.08a3.24,3.24,0,0,0-2.84-3.66h-.07"/><path class="cls-2" d="M527.64,166.31c-1.19-.08-2.87,1-4,1.89a3.23,3.23,0,0,0-1.27,2.38c-.34,6.18-1.9,31.74-4.71,51.13-1.28,9-2.24,16.07-2.86,21-.58-3.56-1.66-10.53-3.21-20.61-8.56-55.39-11.3-55.39-12.47-55.39-1.35,0-2.65,1.22-3.39,2.08a2.15,2.15,0,0,0-.49,1.75c.78,4.38,4.26,24,7.85,46.22,3.46,21.37,7.83,43.42,9.07,49.61a3.91,3.91,0,0,0,3.67,3.24h0c.56,0,1.6,0,3.7-11.76.64-3.63,3.23-21.3,3.94-26.78s6.78-59,7-61.08a3.24,3.24,0,0,0-2.84-3.66h-.07"/><path class="cls-2" d="M484.05,260.61a21.11,21.11,0,0,0-2.38.14s-1.47-75.13-1.47-83.89a2.72,2.72,0,0,1,.49-1.92,2.55,2.55,0,0,1,1.68-.46l2.38.07h0a3.21,3.21,0,0,0,2.59-1.24,4.32,4.32,0,0,0,1-2.82,3.75,3.75,0,0,0-1.32-2.87,6,6,0,0,0-4.19-1.19,54.86,54.86,0,0,0-8.49,1,15.39,15.39,0,0,0-5.22,1.8c-1.48.89-2.24,2-2.24,3.21,0,2.38,1.23,3.64,3.57,3.64a9.6,9.6,0,0,0,2.82-.47c.19,2,.7,76.43.7,83.36,0,2.77-1.19,2.77-1.56,2.77l-2.86-.2c-3.72,0-4.49,2-4.49,3.64,0,3,3.94,4.42,12.09,4.42l7.74-.27a5.45,5.45,0,0,0,2.85-.95s2.15-1.32,2.33-2.61c.33-2.28-1-5.15-6-5.15"/><path class="cls-2" d="M354.09,260.61a21.11,21.11,0,0,0-2.38.14s-1.47-75.13-1.47-83.89a2.66,2.66,0,0,1,.5-1.92,2.49,2.49,0,0,1,1.67-.46l2.38.07h0a3.21,3.21,0,0,0,2.59-1.24,4.32,4.32,0,0,0,1-2.82,3.75,3.75,0,0,0-1.32-2.87,6,6,0,0,0-4.19-1.19,54.86,54.86,0,0,0-8.49,1,15.39,15.39,0,0,0-5.22,1.8c-1.49.89-2.24,2-2.24,3.21,0,2.38,1.23,3.64,3.57,3.64a9.7,9.7,0,0,0,2.82-.47c.18,2,.7,76.43.7,83.36,0,2.77-1.2,2.77-1.56,2.77l-2.86-.2c-3.72,0-4.5,2-4.5,3.64,0,3,4,4.42,12.1,4.42l7.73-.27a5.39,5.39,0,0,0,2.85-.95s2.17-1.32,2.34-2.61c.33-2.28-1-5.15-6-5.15"/><path class="cls-2" d="M19.2,261.82l-7.72-.05v-3c0-15.2-.17-28.59-.51-36.2L9.49,170.43a3.93,3.93,0,0,0-1.32-3,4.16,4.16,0,0,0-2.9-1.19,4.08,4.08,0,0,0-3,1.13,2.77,2.77,0,0,0-.76,2c0,10,.44,25.07,1.32,44.92s1.53,50.89,1.53,50.89c0,.42,0,1.1,0,1.8A2.57,2.57,0,0,0,7,269.63c.55,0,1.08,0,1.5,0H21.26a3.06,3.06,0,0,0,2.29-1.26,3,3,0,0,0,.8-2.5,3.05,3.05,0,0,0-.55-1.69,5.46,5.46,0,0,0-4.6-2.32"/><path class="cls-2" d="M89.76,211.37a26.66,26.66,0,0,0,7.39-9.64,29.44,29.44,0,0,0,3.27-12.91c0-6.58-1.85-12-5.5-16.23s-8.84-6.34-15.35-6.34a4.58,4.58,0,0,0-3.09,1.08c-1.61,1.41-2.38,4.53-2.38,9.54l.93,55.7-.67,33.26c0,2.5,2.27,3.76,6.73,3.76h.53a19.18,19.18,0,0,0,9-2.15,20.61,20.61,0,0,0,6.63-5.32,43.81,43.81,0,0,0,5-8.39,24.22,24.22,0,0,0,2.51-10.34,47,47,0,0,0-3.57-18.07,31.46,31.46,0,0,0-11.45-13.95M87,217.72a10.42,10.42,0,0,1,3.34,2.59,18.21,18.21,0,0,1,3.07,4.36,32.63,32.63,0,0,1,2.44,7.62A55.58,55.58,0,0,1,97,244.06a19.08,19.08,0,0,1-3.75,11.64,15.22,15.22,0,0,1-9.9,6c0-16.94-.22-31.72-.65-44Zm-4.81-38.57c0-2,.26-4.45,1.51-4.45,2.41,0,4.58,1.22,6.45,3.63A12.28,12.28,0,0,1,93,185.84v4.74c-.28.68-.83,2.26-1.69,4.81a69.63,69.63,0,0,1-3.34,8.1c-1.49,3-3.26,4.82-5.26,5.46,0-3.13-.09-7.9-.26-14.57-.17-6.88-.26-12-.26-15.23"/><path class="cls-2" d="M214.32,171a5,5,0,0,0-4.86-4.62h-.07c-2.11,0-4.18,3.17-6.35,9.71a191.68,191.68,0,0,0-5.82,23.32c-1.79,9.22-12.92,59.25-14.12,63.83-.57,2.18,1.62,4.43,3.36,5.81a1.66,1.66,0,0,0,2.61-.82c1.14-3.75,5.32-19.75,6.52-22.9a.58.58,0,0,1,.64-.38c3.14.33,13.74,2.16,16.2,3a.62.62,0,0,1,.42.6v17.1c0,1.78.79,3.91,4.58,3.91,3.21,0,4.91-1.72,4.91-5,0-4.29-6.53-77-8-93.61M212,239.3a93.16,93.16,0,0,1-14.68-1,.59.59,0,0,1-.48-.67c.86-6.49,10.31-47.63,11.32-50v1c0,1.46,3.91,44.07,4.44,50a.6.6,0,0,1-.6.66"/><path class="cls-2" d="M60.79,171a5,5,0,0,0-4.86-4.62h-.07c-2.11,0-4.18,3.17-6.35,9.71a191.68,191.68,0,0,0-5.82,23.32c-1.79,9.22-12.92,59.25-14.12,63.83-.57,2.18,1.62,4.43,3.36,5.81a1.66,1.66,0,0,0,2.61-.82c1.14-3.75,5.32-19.75,6.52-22.9a.58.58,0,0,1,.64-.38c3.14.33,13.74,2.16,16.2,3a.62.62,0,0,1,.42.6v17.1c0,1.78.79,3.91,4.58,3.91,3.21,0,4.92-1.72,4.92-5,0-4.29-6.54-77-8-93.61m-2.28,68.3a93.08,93.08,0,0,1-14.68-1,.6.6,0,0,1-.48-.67c.86-6.49,10.32-47.63,11.33-50,0,.29,0,.63,0,1,0,1.46,3.91,44.07,4.44,50a.6.6,0,0,1-.6.66"/><path class="cls-2" d="M255.69,167.48a5,5,0,0,0-3.22-1.17,124.19,124.19,0,0,0-13.59.92,35.76,35.76,0,0,0-7.94,1.72c-2.33.81-3.47,1.82-3.47,3.09A3.54,3.54,0,0,0,229,175a5.31,5.31,0,0,0,3.31,1.09h0l7-.69c.73,2,1.69,87,1.69,87a10.63,10.63,0,0,0,1.09,4.81,3.83,3.83,0,0,0,3.62,2.32c2.83,0,4.26-2.33,4.26-7,0,0-2.32-83.29-2.9-88.33.25,0,.56,0,.91,0l4.8.26a4.9,4.9,0,0,0,3.13-1,3.54,3.54,0,0,0,1.32-2.9,3.72,3.72,0,0,0-1.49-3"/><path class="cls-2" d="M295,196.44q-.5-3.36-1.34-8.83a31.43,31.43,0,0,0-2.34-8.62c-1-2-2.14-4.16-3.45-6.33a12.46,12.46,0,0,0-5-4.84,15.46,15.46,0,0,0-7.09-1.52,9.68,9.68,0,0,0-7.45,3.75,18.2,18.2,0,0,0-2.56,4.28,33,33,0,0,0-1.7,5.15,52.11,52.11,0,0,0-1,6c-.26,2.25-.46,4.39-.56,6.36s-.18,4.19-.22,6.64v6.31c0,1.74.09,3.71.12,5.89s.06,4.84,0,7.85.22,7.38.72,12.91c.32,3.59.76,7.07,1.27,10.35a92.41,92.41,0,0,0,2.23,10.09,50.37,50.37,0,0,0,3.33,8.93,19.18,19.18,0,0,0,4.83,6.19,10.17,10.17,0,0,0,6.6,2.46,9.36,9.36,0,0,0,6.7-3.07,21.61,21.61,0,0,0,4.44-6.93c3.39-8.13,3.39-39.84,3.39-39.84,0-3.19-.08-7.55-.24-13.36a91.73,91.73,0,0,0-.7-9.84m-13.34,65.3c-1.79,0-3.47-1.41-5-4.2a41.45,41.45,0,0,1-3.73-10.6c-.93-4.15-1.84-9.59-2.71-16.15A140.62,140.62,0,0,1,269,212.41v-.56c0-2.16.11-5.18.19-9,.08-2.32.19-4.45.31-6.34s.36-4.13.6-6.52a46.46,46.46,0,0,1,1-6.28,52.37,52.37,0,0,1,1.49-5.1,10.24,10.24,0,0,1,2-3.59,3.66,3.66,0,0,1,2.81-1.19,5.27,5.27,0,0,1,3.51,1.68,13.24,13.24,0,0,1,3.09,4.91,60.75,60.75,0,0,1,2.23,7,66.34,66.34,0,0,1,1.55,8.49c.4,3.21.72,6.16,1,8.76s.43,5.47.53,8.47.17,5.33.19,6.88,0,4.1,0,7.5-.45,9.4-1.27,17.84a52.11,52.11,0,0,1-2.48,11.89c-1.1,3-2.42,4.55-3.95,4.55"/><path class="cls-2" d="M143,196.44c-.34-2.24-.78-5.18-1.34-8.83a31.79,31.79,0,0,0-2.34-8.62c-1-2-2.14-4.16-3.45-6.33a12.53,12.53,0,0,0-5-4.84,15.52,15.52,0,0,0-7.09-1.52,9.72,9.72,0,0,0-7.46,3.75,17.86,17.86,0,0,0-2.55,4.28,32,32,0,0,0-1.7,5.15,52.11,52.11,0,0,0-1,6c-.27,2.25-.46,4.39-.57,6.36s-.17,4.19-.21,6.64v6.31c0,1.74.08,3.71.12,5.89s.05,4.84,0,7.85.21,7.38.71,12.91c.33,3.59.76,7.07,1.28,10.35a92.32,92.32,0,0,0,2.22,10.09,49.58,49.58,0,0,0,3.34,8.93A19,19,0,0,0,122.8,267a10.15,10.15,0,0,0,6.6,2.46,9.33,9.33,0,0,0,6.69-3.07,21.47,21.47,0,0,0,4.45-6.93c3.39-8.13,3.39-39.84,3.39-39.84,0-3.19-.08-7.55-.25-13.36a95,95,0,0,0-.69-9.84m-13.34,65.3c-1.8,0-3.47-1.41-5-4.2a41.07,41.07,0,0,1-3.73-10.6c-.93-4.15-1.84-9.59-2.71-16.15a140.62,140.62,0,0,1-1.31-18.38v-.56c0-2.16.1-5.18.19-9,.08-2.32.18-4.45.31-6.34s.36-4.13.59-6.52a46.36,46.36,0,0,1,1-6.28,49.72,49.72,0,0,1,1.49-5.1,10.24,10.24,0,0,1,2-3.59,3.66,3.66,0,0,1,2.81-1.19,5.29,5.29,0,0,1,3.51,1.68,13.37,13.37,0,0,1,3.09,4.91,64.93,64.93,0,0,1,2.23,7,70,70,0,0,1,1.55,8.49c.39,3.21.72,6.16,1,8.76s.43,5.47.53,8.47.17,5.33.19,6.88,0,4.1,0,7.5-.45,9.4-1.27,17.84a52.65,52.65,0,0,1-2.48,11.89c-1.1,3-2.43,4.55-3.95,4.55"/><path class="cls-2" d="M398,196.44q-.5-3.36-1.34-8.83a31.43,31.43,0,0,0-2.34-8.62c-1-2-2.14-4.16-3.45-6.33a12.46,12.46,0,0,0-5-4.84,15.46,15.46,0,0,0-7.09-1.52,9.68,9.68,0,0,0-7.45,3.75,18.2,18.2,0,0,0-2.56,4.28,33,33,0,0,0-1.7,5.15,52.11,52.11,0,0,0-1,6c-.26,2.25-.46,4.39-.56,6.36s-.18,4.19-.22,6.64v6.31c0,1.74.09,3.71.12,5.89s.06,4.84,0,7.85.22,7.38.72,12.91c.32,3.59.76,7.07,1.27,10.35a92.41,92.41,0,0,0,2.23,10.09,50.37,50.37,0,0,0,3.33,8.93,19.18,19.18,0,0,0,4.83,6.19,10.15,10.15,0,0,0,6.6,2.46,9.36,9.36,0,0,0,6.7-3.07,21.61,21.61,0,0,0,4.44-6.93c3.39-8.13,3.39-39.84,3.39-39.84,0-3.19-.08-7.55-.24-13.36a91.73,91.73,0,0,0-.7-9.84m-13.34,65.3c-1.8,0-3.47-1.41-5-4.2a41.07,41.07,0,0,1-3.73-10.6c-.93-4.15-1.84-9.59-2.71-16.15a140.62,140.62,0,0,1-1.31-18.38v-.56c0-2.16.11-5.18.19-9,.08-2.32.19-4.45.31-6.34s.36-4.13.6-6.52a44.93,44.93,0,0,1,1-6.28,52.37,52.37,0,0,1,1.49-5.1,10.24,10.24,0,0,1,2-3.59,3.66,3.66,0,0,1,2.81-1.19,5.27,5.27,0,0,1,3.51,1.68,13.24,13.24,0,0,1,3.09,4.91,60.75,60.75,0,0,1,2.23,7,66.34,66.34,0,0,1,1.55,8.49c.4,3.21.72,6.16,1,8.76s.43,5.47.53,8.47.17,5.33.19,6.88,0,4.1,0,7.5-.45,9.4-1.27,17.84a52.11,52.11,0,0,1-2.48,11.89c-1.1,3-2.42,4.55-3.95,4.55"/><path class="cls-2" d="M326,251c-2.14-6.37-9.57-37.67-9.77-40,.15-.42.6-1.54,1.33-3.37s1.3-3.21,1.56-3.84a42.3,42.3,0,0,0,3.27-15,28.31,28.31,0,0,0-2.63-12.17,27,27,0,0,0-3.3-5.28,15,15,0,0,0-4.9-3.63,13.42,13.42,0,0,0-5.74-1.38c-2,0-3.17.25-3.68.77a3.37,3.37,0,0,0-.77,2.48l-.51,95.32a4.19,4.19,0,0,0,1,2.89A3.89,3.89,0,0,0,305,269a3.23,3.23,0,0,0,2.93-1.28,6.07,6.07,0,0,0,.77-3.32V215c1,3.44,2.33,8,4.11,13.68,4.3,13.75,9.31,40.83,13.47,40.83a4.11,4.11,0,0,0,2.43-.82,4.31,4.31,0,0,0,.75-2.13A13.28,13.28,0,0,0,329,260c-.74-2.27-1.85-5.62-3-9m-11.27-61.62c0,6.36-5.13,14.54-6.4,15.8,0-1.28.6-31.31.6-31.31s5.8,3.26,5.8,15.51"/><path class="cls-2" d="M174.21,251c-2.14-6.37-9.58-37.67-9.78-40,.16-.42.61-1.54,1.34-3.37s1.29-3.21,1.56-3.84a42.49,42.49,0,0,0,3.26-15A28.31,28.31,0,0,0,168,176.59a26.53,26.53,0,0,0-3.3-5.28,14.92,14.92,0,0,0-4.9-3.63A13.39,13.39,0,0,0,154,166.3c-2,0-3.16.25-3.68.77a3.37,3.37,0,0,0-.76,2.48l-.52,95.32a4.24,4.24,0,0,0,1,2.89,3.92,3.92,0,0,0,3.11,1.2,3.22,3.22,0,0,0,2.92-1.28,6.06,6.06,0,0,0,.78-3.32V215c1,3.44,2.33,8,4.1,13.68,4.3,13.75,9.31,40.83,13.47,40.83a4.16,4.16,0,0,0,2.44-.82,4.33,4.33,0,0,0,.74-2.13,13.39,13.39,0,0,0-.46-6.56c-.75-2.27-1.86-5.62-3-9m-11.28-61.62c0,6.36-5.13,14.54-6.39,15.8,0-1.28.6-31.31.6-31.31s5.79,3.26,5.79,15.51"/><path class="cls-1" d="M621.67,307.91c-97.47-13.75-201.93-21.2-310.59-21.2S98,294.16.49,307.91C100.24,301,204.22,297.4,311.08,297.4S521.91,301,621.67,307.91"/><path class="cls-2" d="M66.51,19.3v-.11C66.51,8.69,74.35,0,85,0A19.32,19.32,0,0,1,98.65,5.2a1.59,1.59,0,0,1,.53,1.11,1.45,1.45,0,0,1-1.43,1.37,1.4,1.4,0,0,1-1-.36A16.54,16.54,0,0,0,85,2.49c-8.89,0-15.61,7.26-15.61,16.59v.11c0,9.38,6.82,16.69,15.66,16.69,5,0,8.58-1.8,12.08-5.14a1.34,1.34,0,0,1,.95-.42A1.32,1.32,0,0,1,99,32.6c-3.76,3.49-7.84,5.77-14,5.77C74.35,38.37,66.51,30,66.51,19.3Z"/><path class="cls-2" d="M128.4,36.36V2A1.4,1.4,0,0,1,129.78.64h23.93A1.28,1.28,0,0,1,155,1.91a1.28,1.28,0,0,1-1.27,1.27H131.16V17.76h20.17a1.27,1.27,0,0,1,0,2.54H131.16V35.19H154a1.28,1.28,0,1,1,0,2.55H129.78A1.41,1.41,0,0,1,128.4,36.36Z"/><path class="cls-2" d="M185.05,1.85A1.39,1.39,0,0,1,186.43.48h.42a1.76,1.76,0,0,1,1.38.79l25,31.75V1.75a1.33,1.33,0,1,1,2.65,0v35a1.13,1.13,0,0,1-1.11,1.17h-.21a1.91,1.91,0,0,1-1.38-.9L187.69,4.66v32a1.32,1.32,0,1,1-2.64,0Z"/><path class="cls-2" d="M258.32,3.18H246.46a1.28,1.28,0,0,1-1.27-1.27A1.28,1.28,0,0,1,246.46.64h26.47a1.28,1.28,0,0,1,1.27,1.27,1.28,1.28,0,0,1-1.27,1.27H261.07V36.57a1.38,1.38,0,1,1-2.75,0Z"/><path class="cls-2" d="M303.53,2A1.4,1.4,0,0,1,304.91.64H319.1c4.55,0,8.21,1.43,10.43,3.65a9.77,9.77,0,0,1,2.8,6.89v.11c0,6.2-4.6,9.75-10.85,10.6L332,35.57a1.53,1.53,0,0,1,.42,1A1.5,1.5,0,0,1,331,38a1.54,1.54,0,0,1-1.22-.74L318.41,22.37H306.29v14.2a1.38,1.38,0,0,1-2.76,0Zm15.25,17.87c6.2,0,10.8-3.13,10.8-8.48v-.11c0-5-3.92-8.11-10.64-8.11H306.29v16.7Z"/><path class="cls-2" d="M361.34,19.3v-.11C361.34,9.06,368.81,0,380,0s18.58,9,18.58,19.08v.11c0,10.12-7.46,19.18-18.69,19.18S361.34,29.42,361.34,19.3Zm34.42,0v-.11c0-9.17-6.67-16.7-15.84-16.7S364.2,9.91,364.2,19.08v.11c0,9.17,6.67,16.69,15.83,16.69S395.76,28.46,395.76,19.3Z"/><path class="cls-2" d="M466.22,2A1.4,1.4,0,0,1,467.6.64h11c11.64,0,19.69,8,19.69,18.44v.11c0,10.44-8.05,18.55-19.69,18.55h-11a1.41,1.41,0,0,1-1.38-1.38Zm12.34,33.18c10.32,0,16.83-7,16.83-15.89v-.11c0-8.8-6.51-16-16.83-16H469v32Z"/><path class="cls-2" d="M528.8,36.36V2A1.39,1.39,0,0,1,530.18.64H554.1a1.29,1.29,0,0,1,1.28,1.27,1.29,1.29,0,0,1-1.28,1.27H531.55V17.76h20.17a1.27,1.27,0,0,1,0,2.54H531.55V35.19h22.82a1.28,1.28,0,0,1,0,2.55H530.18A1.4,1.4,0,0,1,528.8,36.36Z"/><rect class="cls-3" y="52.61" width="622.16" height="86.14"/><path class="cls-2" d="M41.51,75.89a5.48,5.48,0,1,1,11,0v39.76a5.48,5.48,0,1,1-11,0Z"/><path class="cls-2" d="M72,76a5.44,5.44,0,0,1,5.47-5.48h1.14c2.63,0,4.2,1.28,5.69,3.2l21.14,27.79V75.82a5.41,5.41,0,1,1,10.81,0v39.69a5.44,5.44,0,0,1-5.48,5.48h-.35c-2.64,0-4.2-1.28-5.7-3.2L82.85,89v26.72a5.41,5.41,0,1,1-10.81,0Z"/><path class="cls-2" d="M135.36,76a5.44,5.44,0,0,1,5.48-5.48H142c2.63,0,4.2,1.28,5.69,3.2l21.13,27.79V75.82a5.41,5.41,0,1,1,10.82,0v39.69a5.44,5.44,0,0,1-5.48,5.48h-.35c-2.64,0-4.2-1.28-5.7-3.2L146.18,89v26.72a5.41,5.41,0,1,1-10.82,0Z"/><path class="cls-2" d="M196.48,95.91v-.14C196.48,81.59,207.65,70,223,70s26.4,11.47,26.4,25.65v.14c0,14.18-11.17,25.8-26.54,25.8S196.48,110.09,196.48,95.91Zm41.48,0v-.14c0-8.55-6.26-15.67-15.08-15.67s-14.94,7-14.94,15.53v.14c0,8.55,6.26,15.68,15.08,15.68S238,104.47,238,95.91Z"/><path class="cls-2" d="M277.81,117.15l-16.15-38.7a6.91,6.91,0,0,1-.64-2.63,5.38,5.38,0,0,1,5.48-5.42,5.69,5.69,0,0,1,5.55,3.85l12.45,32.28,12.6-32.64a5.67,5.67,0,0,1,5.26-3.49,5.29,5.29,0,0,1,5.41,5.28,6.47,6.47,0,0,1-.57,2.42l-16.3,39.05a6.43,6.43,0,0,1-6.19,4.34H284A6.43,6.43,0,0,1,277.81,117.15Z"/><path class="cls-2" d="M315.53,113.66l17.36-39.27a6.77,6.77,0,0,1,6.4-4.34h.64a6.68,6.68,0,0,1,6.33,4.34l17.36,39.27a5.26,5.26,0,0,1,.57,2.21,5.19,5.19,0,0,1-5.19,5.27c-2.56,0-4.27-1.5-5.27-3.78l-3.34-7.84H328.48l-3.49,8.2a5.4,5.4,0,0,1-5.05,3.42,5,5,0,0,1-5.05-5.13A5.71,5.71,0,0,1,315.53,113.66Zm30.8-13.83-6.9-16.46-6.9,16.46Z"/><path class="cls-2" d="M375.94,95.91v-.14c0-14.18,10.67-25.79,26-25.79,7.47,0,12.52,2,16.65,5a5.53,5.53,0,0,1,2.13,4.35,5.35,5.35,0,0,1-5.41,5.35A5.73,5.73,0,0,1,412,83.66a16.36,16.36,0,0,0-10.17-3.56c-8.4,0-14.45,7-14.45,15.53v.14c0,8.55,5.91,15.68,14.45,15.68a16,16,0,0,0,10.81-3.92,5.08,5.08,0,1,1,6.55,7.76c-4.49,3.92-9.75,6.28-17.72,6.28C386.82,121.57,375.94,110.24,375.94,95.91Z"/><path class="cls-2" d="M438.27,75.89a5.48,5.48,0,1,1,11,0v39.76a5.48,5.48,0,1,1-11,0Z"/><path class="cls-2" d="M466.59,95.91v-.14c0-14.18,11.17-25.79,26.54-25.79s26.39,11.47,26.39,25.65v.14c0,14.18-11.17,25.8-26.54,25.8S466.59,110.09,466.59,95.91Zm41.48,0v-.14c0-8.55-6.26-15.67-15.09-15.67S478,87.08,478,95.63v.14c0,8.55,6.27,15.68,15.09,15.68S508.07,104.47,508.07,95.91Zm-18-31.14a3.93,3.93,0,0,1,.71-1.92l3.91-6.13a4.66,4.66,0,0,1,4.06-2.42c2.63,0,6.05,1.64,6.05,3.28a3.49,3.49,0,0,1-1.43,2.56L499,64.28a8,8,0,0,1-6.19,2.35C491.21,66.63,490.07,65.91,490.07,64.77Z"/><path class="cls-2" d="M536.39,76a5.44,5.44,0,0,1,5.48-5.48H543c2.63,0,4.19,1.28,5.69,3.2l21.13,27.79V75.82a5.41,5.41,0,1,1,10.82,0v39.69a5.44,5.44,0,0,1-5.48,5.48h-.36c-2.63,0-4.2-1.28-5.69-3.2L547.2,89v26.72a5.41,5.41,0,1,1-10.81,0Z"/></g></g></svg>